  0
SECTION
  2
HEADER
  9
$ACADVER
  1
AC1015
  9
$ACADMAINTVER
 70
     6
  9
$DWGCODEPAGE
  3
ANSI_1252
  9
$INSBASE
 10
0.0
 20
0.0
 30
0.0
  9
$EXTMIN
 10
0.0
 20
0.0
 30
0.0
  9
$EXTMAX
 10
24.0
 20
24.0
 30
0.0
  9
$LIMMIN
 10
0.0
 20
0.0
  9
$LIMMAX
 10
24.0
 20
24.0
  9
$ORTHOMODE
 70
     0
  9
$REGENMODE
 70
     1
  9
$FILLMODE
 70
     1
  9
$QTEXTMODE
 70
     0
  9
$MIRRTEXT
 70
     1
  9
$LTSCALE
 40
1.0
  9
$ATTMODE
 70
     1
  9
$TEXTSIZE
 40
0.125
  9
$TRACEWID
 40
0.05
  9
$TEXTSTYLE
  7
Standard
  9
$CLAYER
  8
0
  9
$CELTYPE
  6
ByLayer
  9
$CECOLOR
 62
   256
  9
$CELTSCALE
 40
1.0
  9
$DISPSILH
 70
     0
  9
$DIMSCALE
 40
1.0
  9
$DIMASZ
 40
0.13
  9
$DIMEXO
 40
0.05
  9
$DIMDLI
 40
0.38
  9
$DIMRND
 40
0.0
  9
$DIMDLE
 40
0.0
  9
$DIMEXE
 40
0.125
  9
$DIMTP
 40
0.0
  9
$DIMTM
 40
0.0
  9
$DIMTXT
 40
0.125
  9
$DIMCEN
 40
0.09
  9
$DIMTSZ
 40
0.0
  9
$DIMTOL
 70
     0
  9
$DIMLIM
 70
     0
  9
$DIMTIH
 70
     1
  9
$DIMTOH
 70
     1
  9
$DIMSE1
 70
     0
  9
$DIMSE2
 70
     0
  9
$DIMTAD
 70
     0
  9
$DIMZIN
 70
     1
  9
$DIMBLK
  1

  9
$DIMASO
 70
     1
  9
$DIMSHO
 70
     1
  9
$DIMPOST
  1

  9
$DIMAPOST
  1

  9
$DIMALT
 70
     0
  9
$DIMALTD
 70
     2
  9
$DIMALTF
 40
25.4
  9
$DIMLFAC
 40
2.0
  9
$DIMTOFL
 70
     0
  9
$DIMTVP
 40
0.0
  9
$DIMTIX
 70
     0
  9
$DIMSOXD
 70
     0
  9
$DIMSAH
 70
     0
  9
$DIMBLK1
  1

  9
$DIMBLK2
  1

  9
$DIMSTYLE
  2
Standard
  9
$DIMCLRD
 70
     0
  9
$DIMCLRE
 70
     0
  9
$DIMCLRT
 70
     0
  9
$DIMTFAC
 40
1.0
  9
$DIMGAP
 40
0.06
  9
$DIMJUST
 70
     0
  9
$DIMSD1
 70
     0
  9
$DIMSD2
 70
     0
  9
$DIMTOLJ
 70
     1
  9
$DIMTZIN
 70
     1
  9
$DIMALTZ
 70
     0
  9
$DIMALTTZ
 70
     0
  9
$DIMUPT
 70
     0
  9
$DIMDEC
 70
     2
  9
$DIMTDEC
 70
     2
  9
$DIMALTU
 70
     2
  9
$DIMALTTD
 70
     2
  9
$DIMTXSTY
  7
Standard
  9
$DIMAUNIT
 70
     0
  9
$DIMADEC
 70
     2
  9
$DIMALTRND
 40
0.0
  9
$DIMAZIN
 70
     0
  9
$DIMDSEP
 70
    46
  9
$DIMATFIT
 70
     3
  9
$DIMFRAC
 70
     0
  9
$DIMLDRBLK
  1

  9
$DIMLUNIT
 70
     2
  9
$DIMLWD
 70
    -2
  9
$DIMLWE
 70
    -2
  9
$DIMTMOVE
 70
     0
  9
$LUNITS
 70
     2
  9
$LUPREC
 70
     2
  9
$SKETCHINC
 40
0.1
  9
$FILLETRAD
 40
0.5
  9
$AUNITS
 70
     0
  9
$AUPREC
 70
     2
  9
$MENU
  1
.
  9
$ELEVATION
 40
0.0
  9
$PELEVATION
 40
0.0
  9
$THICKNESS
 40
0.0
  9
$LIMCHECK
 70
     0
  9
$CHAMFERA
 40
0.0
  9
$CHAMFERB
 40
0.0
  9
$CHAMFERC
 40
0.0
  9
$CHAMFERD
 40
0.0
  9
$SKPOLY
 70
     0
  9
$TDCREATE
 40
2459531.819707408
  9
$TDUCREATE
 40
2459532.153040741
  9
$TDUPDATE
 40
2459531.81970787
  9
$TDUUPDATE
 40
2459532.153041204
  9
$TDINDWG
 40
0.0000000116
  9
$TDUSRTIMER
 40
0.0000000116
  9
$USRTIMER
 70
     1
  9
$ANGBASE
 50
0.0
  9
$ANGDIR
 70
     0
  9
$PDMODE
 70
     0
  9
$PDSIZE
 40
-1.0
  9
$PLINEWID
 40
0.0
  9
$SPLFRAME
 70
     0
  9
$SPLINETYPE
 70
     6
  9
$SPLINESEGS
 70
     8
  9
$HANDSEED
  5
2AC
  9
$SURFTAB1
 70
     6
  9
$SURFTAB2
 70
     6
  9
$SURFTYPE
 70
     6
  9
$SURFU
 70
     6
  9
$SURFV
 70
     6
  9
$UCSBASE
  2

  9
$UCSNAME
  2

  9
$UCSORG
 10
0.0
 20
0.0
 30
0.0
  9
$UCSXDIR
 10
1.0
 20
0.0
 30
0.0
  9
$UCSYDIR
 10
0.0
 20
1.0
 30
0.0
  9
$UCSORTHOREF
  2

  9
$UCSORTHOVIEW
 70
     0
  9
$UCSORGTOP
 10
0.0
 20
0.0
 30
0.0
  9
$UCSORGBOTTOM
 10
0.0
 20
0.0
 30
0.0
  9
$UCSORGLEFT
 10
0.0
 20
0.0
 30
0.0
  9
$UCSORGRIGHT
 10
0.0
 20
0.0
 30
0.0
  9
$UCSORGFRONT
 10
0.0
 20
0.0
 30
0.0
  9
$UCSORGBACK
 10
0.0
 20
0.0
 30
0.0
  9
$PUCSBASE
  2

  9
$PUCSNAME
  2

  9
$PUCSORG
 10
0.0
 20
0.0
 30
0.0
  9
$PUCSXDIR
 10
1.0
 20
0.0
 30
0.0
  9
$PUCSYDIR
 10
0.0
 20
1.0
 30
0.0
  9
$PUCSORTHOREF
  2

  9
$PUCSORTHOVIEW
 70
     0
  9
$PUCSORGTOP
 10
0.0
 20
0.0
 30
0.0
  9
$PUCSORGBOTTOM
 10
0.0
 20
0.0
 30
0.0
  9
$PUCSORGLEFT
 10
0.0
 20
0.0
 30
0.0
  9
$PUCSORGRIGHT
 10
0.0
 20
0.0
 30
0.0
  9
$PUCSORGFRONT
 10
0.0
 20
0.0
 30
0.0
  9
$PUCSORGBACK
 10
0.0
 20
0.0
 30
0.0
  9
$USERI1
 70
     0
  9
$USERI2
 70
     0
  9
$USERI3
 70
     0
  9
$USERI4
 70
     0
  9
$USERI5
 70
     0
  9
$USERR1
 40
0.0
  9
$USERR2
 40
0.0
  9
$USERR3
 40
0.0
  9
$USERR4
 40
0.0
  9
$USERR5
 40
0.0
  9
$WORLDVIEW
 70
     1
  9
$SHADEDGE
 70
     3
  9
$SHADEDIF
 70
    70
  9
$TILEMODE
 70
     1
  9
$MAXACTVP
 70
    64
  9
$PINSBASE
 10
0.0
 20
0.0
 30
0.0
  9
$PLIMCHECK
 70
     0
  9
$PEXTMIN
 10
1.0000000000E+20
 20
1.0000000000E+20
 30
1.0000000000E+20
  9
$PEXTMAX
 10
-1.0000000000E+20
 20
-1.0000000000E+20
 30
-1.0000000000E+20
  9
$PLIMMIN
 10
0.0
 20
0.0
  9
$PLIMMAX
 10
12.0
 20
9.0
  9
$UNITMODE
 70
     0
  9
$VISRETAIN
 70
     1
  9
$PLINEGEN
 70
     0
  9
$PSLTSCALE
 70
     1
  9
$TREEDEPTH
 70
  3020
  9
$CMLSTYLE
  2
Standard
  9
$CMLJUST
 70
     0
  9
$CMLSCALE
 40
1.0
  9
$PROXYGRAPHICS
 70
     1
  9
$MEASUREMENT
 70
     0
  9
$CELWEIGHT
370
    -1
  9
$ENDCAPS
280
     0
  9
$JOINSTYLE
280
     0
  9
$LWDISPLAY
290
     1
  9
$INSUNITS
 70
     1
  9
$HYPERLINKBASE
  1

  9
$STYLESHEET
  1

  9
$XEDIT
290
     1
  9
$CEPSNTYPE
380
     0
  9
$PSTYLEMODE
290
     1
  9
$FINGERPRINTGUID
  2
{89B030AB-5EF4-4FA0-9CE1-B18355464FFC}
  9
$VERSIONGUID
  2
{FAEB1C32-E019-11D5-929B-00C0DF256EC4}
  9
$EXTNAMES
290
     1
  9
$PSVPSCALE
 40
0.0
  9
$OLESTARTUP
290
     0
  0
ENDSEC
  0
SECTION
  2
CLASSES
  0
CLASS
  1
ACDBDICTIONARYWDFLT
  2
AcDbDictionaryWithDefault
  3
ObjectDBX Classes
 90
        0
280
     0
281
     0
  0
CLASS
  1
VISUALSTYLE
  2
AcDbVisualStyle
  3
ObjectDBX Classes
 90
     4095
280
     0
281
     0
  0
CLASS
  1
MATERIAL
  2
AcDbMaterial
  3
ObjectDBX Classes
 90
     1153
280
     0
281
     0
  0
CLASS
  1
SCALE
  2
AcDbScale
  3
ObjectDBX Classes
 90
     1153
280
     0
281
     0
  0
CLASS
  1
TABLESTYLE
  2
AcDbTableStyle
  3
ObjectDBX Classes
 90
     4095
280
     0
281
     0
  0
CLASS
  1
MLEADERSTYLE
  2
AcDbMLeaderStyle
  3
ACDB_MLEADERSTYLE_CLASS
 90
     4095
280
     0
281
     0
  0
CLASS
  1
SUN
  2
AcDbSun
  3
SCENEOE
 90
     1153
280
     0
281
     0
  0
CLASS
  1
ACDBPLACEHOLDER
  2
AcDbPlaceHolder
  3
ObjectDBX Classes
 90
        0
280
     0
281
     0
  0
CLASS
  1
LAYOUT
  2
AcDbLayout
  3
ObjectDBX Classes
 90
        0
280
     0
281
     0
  0
ENDSEC
  0
SECTION
  2
TABLES
  0
TABLE
  2
VPORT
  5
8
330
0
100
AcDbSymbolTable
 70
     1
  0
VPORT
  5
29
330
8
100
AcDbSymbolTableRecord
100
AcDbViewportTableRecord
  2
*Active
 70
     0
 10
0.0
 20
0.0
 11
1.0
 21
1.0
 12
12.0
 22
12.0
 13
0.0
 23
0.0
 14
0.5
 24
0.5
 15
0.5
 25
0.5
 16
0.0
 26
0.0
 36
1.0
 17
0.0
 27
0.0
 37
0.0
 40
24.0
 41
1.0
 42
50.0
 43
0.0
 44
0.0
 50
0.0
 51
0.0
 71
     0
 72
  2000
 73
     1
 74
     3
 75
     0
 76
     0
 77
     0
 78
     0
281
     0
 65
     1
110
0.0
120
0.0
130
0.0
111
1.0
121
0.0
131
0.0
112
0.0
122
1.0
132
0.0
 79
     0
146
0.0
  0
ENDTAB
  0
TABLE
  2
LTYPE
  5
5
330
0
100
AcDbSymbolTable
 70
     6
  0
LTYPE
  5
14
330
5
100
AcDbSymbolTableRecord
100
AcDbLinetypeTableRecord
  2
ByBlock
 70
     0
  3

 72
    65
 73
     0
 40
0.0
  0
LTYPE
  5
15
330
5
100
AcDbSymbolTableRecord
100
AcDbLinetypeTableRecord
  2
ByLayer
 70
     0
  3

 72
    65
 73
     0
 40
0.0
  0
LTYPE
  5
16
330
5
100
AcDbSymbolTableRecord
100
AcDbLinetypeTableRecord
  2
Continuous
 70
     0
  3
Solid line
 72
    65
 73
     0
 40
0.0
  0
LTYPE
  5
6E
330
5
100
AcDbSymbolTableRecord
100
AcDbLinetypeTableRecord
  2
HIDDEN
 70
     0
  3
Hidden __ __ __ __ __ __ __ __ __ __ __ __ __ __
 72
    65
 73
     2
 40
0.075
 49
0.05
 74
     0
 49
-0.025
 74
     0
  0
LTYPE
  5
6F
330
5
100
AcDbSymbolTableRecord
100
AcDbLinetypeTableRecord
  2
PHANTOM
 70
     0
  3
Phantom ______  __  __  ______  __  __  ______
 72
    65
 73
     6
 40
0.5
 49
0.25
 74
     0
 49
-0.05
 74
     0
 49
0.05
 74
     0
 49
-0.05
 74
     0
 49
0.05
 74
     0
 49
-0.05
 74
     0
  0
LTYPE
  5
70
330
5
100
AcDbSymbolTableRecord
100
AcDbLinetypeTableRecord
  2
CENTER
 70
     0
  3
Center ____ _ ____ _ ____ _ ____ _ ____ _ ____
 72
    65
 73
     4
 40
0.4
 49
0.25
 74
     0
 49
-0.05
 74
     0
 49
0.05
 74
     0
 49
-0.05
 74
     0
  0
LTYPE
  5
71
330
5
100
AcDbSymbolTableRecord
100
AcDbLinetypeTableRecord
  2
CENTERX2
 70
     0
  3
Center (2x) ________  __  ________  __  _____
 72
    65
 73
     4
 40
0.8
 49
0.5
 74
     0
 49
-0.1
 74
     0
 49
0.1
 74
     0
 49
-0.1
 74
     0
  0
LTYPE
  5
72
330
5
100
AcDbSymbolTableRecord
100
AcDbLinetypeTableRecord
  2
DOT2
 70
     0
  3
Dot (.5x) ........................................
 72
    65
 73
     2
 40
0.025
 49
0.0
 74
     0
 49
-0.025
 74
     0
  0
ENDTAB
  0
TABLE
  2
LAYER
  5
2
330
0
100
AcDbSymbolTable
 70
     1
  0
LAYER
  5
10
330
2
100
AcDbSymbolTableRecord
100
AcDbLayerTableRecord
  2
0
 70
     0
 62
     7
  6
Continuous
370
    -3
390
F
  0
ENDTAB
  0
TABLE
  2
STYLE
  5
3
330
0
100
AcDbSymbolTable
 70
     1
  0
STYLE
  5
11
330
3
100
AcDbSymbolTableRecord
100
AcDbTextStyleTableRecord
  2
Standard
 70
     0
 40
0.0
 41
1.0
 50
0.0
 71
     0
 42
0.125
  3
txt
  4

  0
ENDTAB
  0
TABLE
  2
VIEW
  5
6
330
0
100
AcDbSymbolTable
 70
     0
  0
ENDTAB
  0
TABLE
  2
UCS
  5
7
330
0
100
AcDbSymbolTable
 70
     0
  0
ENDTAB
  0
TABLE
  2
APPID
  5
9
330
0
100
AcDbSymbolTable
 70
     1
  0
APPID
  5
12
330
9
100
AcDbSymbolTableRecord
100
AcDbRegAppTableRecord
  2
ACAD
 70
     0
  0
ENDTAB
  0
TABLE
  2
DIMSTYLE
  5
A
330
0
100
AcDbSymbolTable
 70
     1
100
AcDbDimStyleTable
  0
DIMSTYLE
105
27
330
A
100
AcDbSymbolTableRecord
100
AcDbDimStyleTableRecord
  2
Standard
 70
     0
178
     0
340
11
  0
ENDTAB
  0
TABLE
  2
BLOCK_RECORD
  5
1
330
0
100
AcDbSymbolTable
 70
     1
  0
BLOCK_RECORD
  5
1F
330
1
100
AcDbSymbolTableRecord
100
AcDbBlockTableRecord
  2
*Model_Space
340
22
  0
BLOCK_RECORD
  5
1B
330
1
100
AcDbSymbolTableRecord
100
AcDbBlockTableRecord
  2
*Paper_Space
340
1E
  0
BLOCK_RECORD
  5
23
330
1
100
AcDbSymbolTableRecord
100
AcDbBlockTableRecord
  2
*Paper_Space0
340
26
  0
ENDTAB
  0
ENDSEC
  0
SECTION
  2
BLOCKS
  0
BLOCK
  5
20
330
1F
100
AcDbEntity
  8
0
100
AcDbBlockBegin
  2
*Model_Space
 70
     0
 10
0.0
 20
0.0
 30
0.0
  3
*Model_Space
  1

  0
ENDBLK
  5
21
330
1F
100
AcDbEntity
  8
0
100
AcDbBlockEnd
  0
BLOCK
  5
1C
330
1B
100
AcDbEntity
 67
     1
  8
0
100
AcDbBlockBegin
  2
*Paper_Space
 70
     0
 10
0.0
 20
0.0
 30
0.0
  3
*Paper_Space
  1

  0
ENDBLK
  5
1D
330
1B
100
AcDbEntity
 67
     1
  8
0
100
AcDbBlockEnd
  0
BLOCK
  5
24
330
23
100
AcDbEntity
  8
0
100
AcDbBlockBegin
  2
*Paper_Space0
 70
     0
 10
0.0
 20
0.0
 30
0.0
  3
*Paper_Space0
  1

  0
ENDBLK
  5
25
330
23
100
AcDbEntity
  8
0
100
AcDbBlockEnd
  0
ENDSEC
  0
SECTION
  2
ENTITIES
  0
LINE
  5
73
330
1F
100
AcDbEntity
  8
0
  6
Continuous
 62
     7
370
    25
100
AcDbLine
 10
5.7368729641
 20
22.5818110058
 30
0.0
 11
5.7389520867
 21
22.820046547
 31
0.0
  0
LINE
  5
74
330
1F
100
AcDbEntity
  8
0
  6
Continuous
 62
     7
370
    25
100
AcDbLine
 10
5.4868831053
 20
22.5839922073
 30
0.0
 11
5.7368729641
 21
22.5818110058
 31
0.0
  0
LINE
  5
75
330
1F
100
AcDbEntity
  8
0
  6
Continuous
 62
     7
370
    25
100
AcDbLine
 10
5.488962228
 20
22.8222277485
 30
0.0
 11
5.4868831053
 21
22.5839922073
 31
0.0
  0
LINE
  5
76
330
1F
100
AcDbEntity
  8
0
  6
Continuous
 62
     7
370
    25
100
AcDbLine
 10
4.4890004463
 20
22.8309537277
 30
0.0
 11
5.488962228
 21
22.8222277485
 31
0.0
  0
LINE
  5
77
330
1F
100
AcDbEntity
  8
0
  6
Continuous
 62
     7
370
    25
100
AcDbLine
 10
5.7389520867
 20
22.820046547
 30
0.0
 11
6.0389394479
 21
22.8174276973
 31
0.0
  0
CIRCLE
  5
78
330
1F
100
AcDbEntity
  8
0
  6
Continuous
 62
     7
370
    25
100
AcDbCircle
 10
4.8545190068
 20
23.0777738625
 30
0.0
 40
0.0799999999999985
  0
LINE
  5
79
330
1F
100
AcDbEntity
  8
0
  6
Continuous
 62
     7
370
    25
100
AcDbLine
 10
5.4954037536
 20
23.5604441805
 30
0.0
 11
5.4933246309
 21
23.3222086393
 31
0.0
  0
LINE
  5
7A
330
1F
100
AcDbEntity
  8
0
  6
Continuous
 62
     7
370
    25
100
AcDbLine
 10
5.4933246309
 20
23.3222086393
 30
0.0
 11
4.4933628492
 21
23.3309346185
 31
0.0
  0
LINE
  5
7B
330
1F
100
AcDbEntity
  8
0
  6
Continuous
 62
     7
370
    25
100
AcDbLine
 10
5.7433144897
 20
23.3200274379
 30
0.0
 11
5.7453936123
 21
23.5582629791
 31
0.0
  0
LINE
  5
7C
330
1F
100
AcDbEntity
  8
0
  6
Continuous
 62
     7
370
    25
100
AcDbLine
 10
6.0433041975
 20
23.3174085881
 30
0.0
 11
5.7433144897
 21
23.3200274379
 31
0.0
  0
LINE
  5
7D
330
1F
100
AcDbEntity
  8
0
  6
Continuous
 62
     7
370
    25
100
AcDbLine
 10
6.0389394479
 20
22.8174276973
 30
0.0
 11
6.0433041975
 21
23.3174085881
 31
0.0
  0
LINE
  5
7E
330
1F
100
AcDbEntity
  8
0
  6
Continuous
 62
     7
370
    25
100
AcDbLine
 10
4.4933628492
 20
23.3309346185
 30
0.0
 11
4.4890004463
 21
22.8309537277
 31
0.0
  0
LINE
  5
7F
330
1F
100
AcDbEntity
  8
0
  6
Continuous
 62
     7
370
    25
100
AcDbLine
 10
5.7453936123
 20
23.5582629791
 30
0.0
 11
5.4954037536
 21
23.5604441805
 31
0.0
  0
ARC
  5
80
330
1F
100
AcDbEntity
  8
0
  6
Continuous
 62
     7
370
    25
100
AcDbCircle
 10
22.1340076627
 20
15.1753409529
 30
0.0
 40
1.400000000000005
100
AcDbArc
 50
315.5729959992
 51
224.4270040008
  0
LINE
  5
81
330
1F
100
AcDbEntity
  8
0
  6
Continuous
 62
     7
370
    25
100
AcDbLine
 10
23.1338073532
 20
14.195340687
 30
0.0
 11
21.1342076261
 21
14.195340687
 31
0.0
  0
CIRCLE
  5
82
330
1F
100
AcDbEntity
  8
0
  6
Continuous
 62
     7
370
    25
100
AcDbCircle
 10
23.1388462498
 20
14.8622376562
 30
0.0
 40
0.0800000000000018
  0
CIRCLE
  5
83
330
1F
100
AcDbEntity
  8
0
  6
Continuous
 62
     7
370
    25
100
AcDbCircle
 10
21.8398356504
 20
16.3432749489
 30
0.0
 40
0.0800000000000018
  0
CIRCLE
  5
84
330
1F
100
AcDbEntity
  8
0
  6
Continuous
 62
     7
370
    25
100
AcDbCircle
 10
21.1788462498
 20
14.3632749489
 30
0.0
 40
0.0799999999999983
  0
CIRCLE
  5
85
330
1F
100
AcDbEntity
  8
0
  6
Continuous
 62
     7
370
    25
100
AcDbCircle
 10
22.1340076627
 20
15.1753409529
 30
0.0
 40
0.8399999999999963
  0
CIRCLE
  5
86
330
1F
100
AcDbEntity
  8
0
  6
Continuous
 62
     7
370
    25
100
AcDbCircle
 10
15.9549864374
 20
20.8903429015
 30
0.0
 40
0.8400000000000016
  0
CIRCLE
  5
87
330
1F
100
AcDbEntity
  8
0
  6
Continuous
 62
     7
370
    25
100
AcDbCircle
 10
16.9598250246
 20
20.5772396047
 30
0.0
 40
0.0800000000000018
  0
LINE
  5
88
330
1F
100
AcDbEntity
  8
0
  6
Continuous
 62
     7
370
    25
100
AcDbLine
 10
16.9547862538
 20
19.9103425602
 30
0.0
 11
14.9551865267
 21
19.9103425602
 31
0.0
  0
CIRCLE
  5
89
330
1F
100
AcDbEntity
  8
0
  6
Continuous
 62
     7
370
    25
100
AcDbCircle
 10
14.9998250246
 20
20.0782768974
 30
0.0
 40
0.0799999999999983
  0
CIRCLE
  5
8A
330
1F
100
AcDbEntity
  8
0
  6
Continuous
 62
     7
370
    25
100
AcDbCircle
 10
15.6608144251
 20
22.0582768974
 30
0.0
 40
0.0800000000000001
  0
ARC
  5
8B
330
1F
100
AcDbEntity
  8
0
  6
Continuous
 62
     7
370
    25
100
AcDbCircle
 10
15.9549864374
 20
20.8903429015
 30
0.0
 40
1.400000000000001
100
AcDbArc
 50
315.5729959992
 51
224.4270040008
  0
ARC
  5
8C
330
1F
100
AcDbEntity
  8
0
  6
Continuous
 62
     7
370
    25
100
AcDbCircle
 10
16.1075112362
 20
17.2094073079
 30
0.0
 40
1.4
100
AcDbArc
 50
315.5729959992
 51
224.4270040008
  0
CIRCLE
  5
8D
330
1F
100
AcDbEntity
  8
0
  6
Continuous
 62
     7
370
    25
100
AcDbCircle
 10
16.1075112362
 20
17.2094073079
 30
0.0
 40
0.8399999999999999
  0
CIRCLE
  5
8E
330
1F
100
AcDbEntity
  8
0
  6
Continuous
 62
     7
370
    25
100
AcDbCircle
 10
15.1523498234
 20
16.3973413038
 30
0.0
 40
0.0800000000000001
  0
CIRCLE
  5
8F
330
1F
100
AcDbEntity
  8
0
  6
Continuous
 62
     7
370
    25
100
AcDbCircle
 10
17.1123498234
 20
16.8963040111
 30
0.0
 40
0.0799999999999983
  0
LINE
  5
90
330
1F
100
AcDbEntity
  8
0
  6
Continuous
 62
     7
370
    25
100
AcDbLine
 10
17.1073107852
 20
16.2294072693
 30
0.0
 11
15.107711058
 21
16.2294072693
 31
0.0
  0
CIRCLE
  5
91
330
1F
100
AcDbEntity
  8
0
  6
Continuous
 62
     7
370
    25
100
AcDbCircle
 10
15.8133392239
 20
18.3773413038
 30
0.0
 40
0.0799999999999983
  0
ARC
  5
92
330
1F
100
AcDbEntity
  8
0
  6
Continuous
 62
     7
370
    25
100
AcDbCircle
 10
22.5031891862
 20
11.9282213289
 30
0.0
 40
1.399999999999999
100
AcDbArc
 50
315.5729959992
 51
224.4270040008
  0
LINE
  5
93
330
1F
100
AcDbEntity
  8
0
  6
Continuous
 62
     7
370
    25
100
AcDbLine
 10
23.5029889017
 20
10.9482216114
 30
0.0
 11
21.5033891746
 21
10.9482216114
 31
0.0
  0
CIRCLE
  5
94
330
1F
100
AcDbEntity
  8
0
  6
Continuous
 62
     7
370
    25
100
AcDbCircle
 10
23.5080277733
 20
11.6151180322
 30
0.0
 40
0.0800000000000018
  0
CIRCLE
  5
95
330
1F
100
AcDbEntity
  8
0
  6
Continuous
 62
     7
370
    25
100
AcDbCircle
 10
21.5480277733
 20
11.1161553249
 30
0.0
 40
0.0800000000000018
  0
CIRCLE
  5
96
330
1F
100
AcDbEntity
  8
0
  6
Continuous
 62
     7
370
    25
100
AcDbCircle
 10
22.2090171738
 20
13.0961553249
 30
0.0
 40
0.0800000000000018
  0
CIRCLE
  5
97
330
1F
100
AcDbEntity
  8
0
  6
Continuous
 62
     7
370
    25
100
AcDbCircle
 10
22.5031891862
 20
11.9282213289
 30
0.0
 40
0.8399999999999963
  0
LINE
  5
98
330
1F
100
AcDbEntity
  8
0
  6
Continuous
 62
     7
370
    25
100
AcDbLine
 10
22.1897700988
 20
17.4887020552
 30
0.0
 11
22.1963148766
 21
18.2386739781
 31
0.0
  0
LINE
  5
99
330
1F
100
AcDbEntity
  8
0
  6
Continuous
 62
     7
370
    25
100
AcDbLine
 10
22.1963148766
 20
18.2386739781
 30
0.0
 11
21.9963225202
 21
18.2404198779
 31
0.0
  0
ARC
  5
9A
330
1F
100
AcDbEntity
  8
0
  6
Continuous
 62
     7
370
    25
100
AcDbCircle
 10
22.1072266959
 20
19.4894990708
 30
0.0
 40
1.375
100
AcDbArc
 50
158.1763137365
 51
248.1763137365
  0
ARC
  5
9B
330
1F
100
AcDbEntity
  8
0
  6
Continuous
 62
     7
370
    25
100
AcDbCircle
 10
22.8427994767
 20
17.8330309884
 30
0.0
 40
0.4999999999999993
100
AcDbArc
 50
359.5
 51
89.0713466127
  0
ARC
  5
9C
330
1F
100
AcDbEntity
  8
0
  6
Continuous
 62
     7
370
    25
100
AcDbCircle
 10
22.1072266959
 20
19.4894990708
 30
0.0
 40
1.375
100
AcDbArc
 50
302.7419025353
 51
20.8236862635
  0
ARC
  5
9D
330
1F
100
AcDbEntity
  8
0
  6
Continuous
 62
     7
370
    25
100
AcDbCircle
 10
22.0897736249
 20
17.4895752247
 30
0.0
 40
0.4999999999999993
100
AcDbArc
 50
179.5
 51
269.5
  0
LINE
  5
9E
330
1F
100
AcDbEntity
  8
0
  6
Continuous
 62
     7
370
    25
100
AcDbLine
 10
22.5962995892
 20
18.2351833517
 30
0.0
 11
22.3963072329
 21
18.2369292516
 31
0.0
  0
LINE
  5
9F
330
1F
100
AcDbEntity
  8
0
  6
Continuous
 62
     7
370
    25
100
AcDbLine
 10
22.3897624552
 20
17.4869573287
 30
0.0
 11
22.5897548115
 21
17.4852114288
 31
0.0
  0
LINE
  5
A0
330
1F
100
AcDbEntity
  8
0
  6
Continuous
 62
     7
370
    25
100
AcDbLine
 10
21.5897924432
 20
17.4939385813
 30
0.0
 11
21.596067944
 21
18.2130428075
 31
0.0
  0
LINE
  5
A1
330
1F
100
AcDbEntity
  8
0
  6
Continuous
 62
     7
370
    25
100
AcDbLine
 10
23.1803805219
 20
19.9801527404
 30
0.0
 11
23.3924099658
 21
19.9783024151
 31
0.0
  0
LINE
  5
A2
330
1F
100
AcDbEntity
  8
0
  6
Continuous
 62
     7
370
    25
100
AcDbLine
 10
21.9963225202
 20
18.2404198779
 30
0.0
 11
21.9897771558
 21
17.490447955
 31
0.0
  0
LINE
  5
A3
330
1F
100
AcDbEntity
  8
0
  6
Continuous
 62
     7
370
    25
100
AcDbLine
 10
22.8353816807
 20
16.9830493365
 30
0.0
 11
22.0854103444
 21
16.9895941142
 31
0.0
  0
LINE
  5
A4
330
1F
100
AcDbEntity
  8
0
  6
Continuous
 62
     7
370
    25
100
AcDbLine
 10
20.8307701181
 20
20.0006576768
 30
0.0
 11
21.0427995621
 21
19.9988073515
 31
0.0
  0
ARC
  5
A5
330
1F
100
AcDbEntity
  8
0
  6
Continuous
 62
     7
370
    25
100
AcDbCircle
 10
22.1072266959
 20
19.4894990708
 30
0.0
 40
1.180000000000001
100
AcDbArc
 50
154.4297720507
 51
24.5702279493
  0
LINE
  5
A6
330
1F
100
AcDbEntity
  8
0
  6
Continuous
 62
     7
370
    25
100
AcDbLine
 10
21.9897771558
 20
17.490447955
 30
0.0
 11
22.1897700988
 21
17.4887020552
 31
0.0
  0
LINE
  5
A7
330
1F
100
AcDbEntity
  8
0
  6
Continuous
 62
     7
370
    25
100
AcDbLine
 10
22.3963072329
 20
18.2369292516
 30
0.0
 11
22.3897624552
 21
17.4869573287
 31
0.0
  0
LINE
  5
A8
330
1F
100
AcDbEntity
  8
0
  6
Continuous
 62
     7
370
    25
100
AcDbLine
 10
22.5897548115
 20
17.4852114288
 30
0.0
 11
22.5962995892
 21
18.2351833517
 31
0.0
  0
ARC
  5
A9
330
1F
100
AcDbEntity
  8
0
  6
Continuous
 62
     7
370
    25
100
AcDbCircle
 10
22.8397450672
 20
17.4830303231
 30
0.0
 40
0.4999999999999993
100
AcDbArc
 50
269.5
 51
359.5
  0
LINE
  5
AA
330
1F
100
AcDbEntity
  8
0
  6
Continuous
 62
     7
370
    25
100
AcDbLine
 10
23.3427802992
 20
17.8286679412
 30
0.0
 11
23.3397261478
 21
17.4786666511
 31
0.0
  0
LINE
  5
AB
330
1F
100
AcDbEntity
  8
0
  6
Continuous
 62
     7
370
    25
100
AcDbLine
 10
15.0182043587
 20
9.7343856337
 30
0.0
 11
15.0182043587
 21
8.9843858444
 31
0.0
  0
LINE
  5
AC
330
1F
100
AcDbEntity
  8
0
  6
Continuous
 62
     7
370
    25
100
AcDbLine
 10
21.8682042136
 20
9.7343856337
 30
0.0
 11
15.0182043587
 21
9.7343856337
 31
0.0
  0
LINE
  5
AD
330
1F
100
AcDbEntity
  8
0
  6
Continuous
 62
     7
370
    25
100
AcDbLine
 10
21.8682042136
 20
9.7343856337
 30
0.0
 11
21.8682042136
 21
8.9843858444
 31
0.0
  0
LINE
  5
AE
330
1F
100
AcDbEntity
  8
0
  6
Continuous
 62
     7
370
    25
100
AcDbLine
 10
15.0182043587
 20
8.9843858444
 30
0.0
 11
21.8682042136
 21
8.9843858444
 31
0.0
  0
LINE
  5
AF
330
1F
100
AcDbEntity
  8
0
  6
Continuous
 62
     7
370
    25
100
AcDbLine
 10
16.0682035357
 20
9.4593858772
 30
0.0
 11
16.0682035357
 21
9.2593858943
 31
0.0
  0
LINE
  5
B0
330
1F
100
AcDbEntity
  8
0
  6
Continuous
 62
     7
370
    25
100
AcDbLine
 10
16.0682035357
 20
9.2593858943
 30
0.0
 11
17.0682040369
 21
9.2593858943
 31
0.0
  0
LINE
  5
B1
330
1F
100
AcDbEntity
  8
0
  6
Continuous
 62
     7
370
    25
100
AcDbLine
 10
17.0682040369
 20
9.2593858943
 30
0.0
 11
17.0682040369
 21
9.4593858772
 31
0.0
  0
LINE
  5
B2
330
1F
100
AcDbEntity
  8
0
  6
Continuous
 62
     7
370
    25
100
AcDbLine
 10
17.0682040369
 20
9.4593858772
 30
0.0
 11
16.0682035357
 21
9.4593858772
 31
0.0
  0
CIRCLE
  5
B3
330
1F
100
AcDbEntity
  8
0
  6
Continuous
 62
     7
370
    25
100
AcDbCircle
 10
21.5125146025
 20
9.359385752
 30
0.0
 40
0.0800000000000001
  0
LINE
  5
B4
330
1F
100
AcDbEntity
  8
0
  6
Continuous
 62
     7
370
    25
100
AcDbLine
 10
11.5624009738
 20
5.3772751374
 30
0.0
 11
18.4124014153
 21
5.3772751374
 31
0.0
  0
LINE
  5
B5
330
1F
100
AcDbEntity
  8
0
  6
Continuous
 62
     7
370
    25
100
AcDbLine
 10
12.6124013241
 20
5.8522751335
 30
0.0
 11
12.6124013241
 21
5.6522751322
 31
0.0
  0
LINE
  5
B6
330
1F
100
AcDbEntity
  8
0
  6
Continuous
 62
     7
370
    25
100
AcDbLine
 10
12.6124013241
 20
5.6522751322
 30
0.0
 11
13.612400652
 21
5.6522751322
 31
0.0
  0
LINE
  5
B7
330
1F
100
AcDbEntity
  8
0
  6
Continuous
 62
     7
370
    25
100
AcDbLine
 10
13.612400652
 20
5.6522751322
 30
0.0
 11
13.612400652
 21
5.8522751335
 31
0.0
  0
LINE
  5
B8
330
1F
100
AcDbEntity
  8
0
  6
Continuous
 62
     7
370
    25
100
AcDbLine
 10
13.612400652
 20
5.8522751335
 30
0.0
 11
12.6124013241
 21
5.8522751335
 31
0.0
  0
CIRCLE
  5
B9
330
1F
100
AcDbEntity
  8
0
  6
Continuous
 62
     7
370
    25
100
AcDbCircle
 10
18.0567114835
 20
5.7522751289
 30
0.0
 40
0.0800000000000001
  0
LINE
  5
BA
330
1F
100
AcDbEntity
  8
0
  6
Continuous
 62
     7
370
    25
100
AcDbLine
 10
18.4124014153
 20
6.1272751467
 30
0.0
 11
11.5624009738
 21
6.1272751467
 31
0.0
  0
LINE
  5
BB
330
1F
100
AcDbEntity
  8
0
  6
Continuous
 62
     7
370
    25
100
AcDbLine
 10
11.5624009738
 20
6.1272751467
 30
0.0
 11
11.5624009738
 21
5.3772751374
 31
0.0
  0
LINE
  5
BC
330
1F
100
AcDbEntity
  8
0
  6
Continuous
 62
     7
370
    25
100
AcDbLine
 10
18.4124014153
 20
6.1272751467
 30
0.0
 11
18.4124014153
 21
5.3772751374
 31
0.0
  0
ARC
  5
BD
330
1F
100
AcDbEntity
  8
0
  6
Continuous
 62
     7
370
    25
100
AcDbCircle
 10
21.5889815442
 20
21.3004328812
 30
0.0
 40
1.125000000000003
100
AcDbArc
 50
116.3877999612
 51
63.6122000388
  0
LINE
  5
BE
330
1F
100
AcDbEntity
  8
0
  6
Continuous
 62
     7
370
    25
100
AcDbLine
 10
21.0889814286
 20
23.3004329976
 30
0.0
 11
21.0889814286
 21
22.3082151264
 31
0.0
  0
ARC
  5
BF
330
1F
100
AcDbEntity
  8
0
  6
Continuous
 62
     7
370
    25
100
AcDbCircle
 10
21.5889815442
 20
23.3004328812
 30
0.0
 40
0.5000000000000036
100
AcDbArc
 50
90.0
 51
180.0
  0
LINE
  5
C0
330
1F
100
AcDbEntity
  8
0
  6
Continuous
 62
     7
370
    25
100
AcDbLine
 10
21.5889816792
 20
23.8004326615
 30
0.0
 11
22.3389817618
 21
23.8004326615
 31
0.0
  0
ARC
  5
C1
330
1F
100
AcDbEntity
  8
0
  6
Continuous
 62
     7
370
    25
100
AcDbCircle
 10
22.3389815442
 20
23.3004328812
 30
0.0
 40
0.5000000000000036
100
AcDbArc
 50
0.0
 51
90.0
  0
LINE
  5
C2
330
1F
100
AcDbEntity
  8
0
  6
Continuous
 62
     7
370
    25
100
AcDbLine
 10
22.8389814258
 20
23.3004329976
 30
0.0
 11
22.8389814258
 21
23.167633145
 31
0.0
  0
LINE
  5
C3
330
1F
100
AcDbEntity
  8
0
  6
Continuous
 62
     7
370
    25
100
AcDbLine
 10
23.7639815667
 20
23.167633145
 30
0.0
 11
22.8389814258
 21
23.167633145
 31
0.0
  0
LINE
  5
C4
330
1F
100
AcDbEntity
  8
0
  6
Continuous
 62
     7
370
    25
100
AcDbLine
 10
23.7639815667
 20
23.167633145
 30
0.0
 11
23.7639815667
 21
22.9176327264
 31
0.0
  0
LINE
  5
C5
330
1F
100
AcDbEntity
  8
0
  6
Continuous
 62
     7
370
    25
100
AcDbLine
 10
23.7639815667
 20
22.9176327264
 30
0.0
 11
22.8389814258
 21
22.9176327264
 31
0.0
  0
LINE
  5
C6
330
1F
100
AcDbEntity
  8
0
  6
Continuous
 62
     7
370
    25
100
AcDbLine
 10
22.8389814258
 20
22.9176327264
 30
0.0
 11
22.8389814258
 21
22.8082147904
 31
0.0
  0
ARC
  5
C7
330
1F
100
AcDbEntity
  8
0
  6
Continuous
 62
     7
370
    25
100
AcDbCircle
 10
22.3389815442
 20
22.8082150997
 30
0.0
 40
0.5000000000000036
100
AcDbArc
 50
270.0
 51
0.0
  0
LINE
  5
C8
330
1F
100
AcDbEntity
  8
0
  6
Continuous
 62
     7
370
    25
100
AcDbLine
 10
22.3389817618
 20
22.3082151264
 30
0.0
 11
22.0889813431
 21
22.3082151264
 31
0.0
  0
CIRCLE
  5
C9
330
1F
100
AcDbEntity
  8
0
  6
Continuous
 62
     7
370
    25
100
AcDbCircle
 10
21.5889815442
 20
21.3004328812
 30
0.0
 40
0.9550000000000018
  0
LINE
  5
CA
330
1F
100
AcDbEntity
  8
0
  6
Continuous
 62
     7
370
    25
100
AcDbLine
 10
21.6889813773
 20
23.3004329976
 30
0.0
 11
21.4889813944
 21
23.3004329976
 31
0.0
  0
LINE
  5
CB
330
1F
100
AcDbEntity
  8
0
  6
Continuous
 62
     7
370
    25
100
AcDbLine
 10
21.4889813944
 20
22.5504329149
 30
0.0
 11
21.6889813773
 21
22.5504329149
 31
0.0
  0
LINE
  5
CC
330
1F
100
AcDbEntity
  8
0
  6
Continuous
 62
     7
370
    25
100
AcDbLine
 10
21.6889813773
 20
22.5504329149
 30
0.0
 11
21.6889813773
 21
23.3004329976
 31
0.0
  0
LINE
  5
CD
330
1F
100
AcDbEntity
  8
0
  6
Continuous
 62
     7
370
    25
100
AcDbLine
 10
21.8889813602
 20
22.5504329149
 30
0.0
 11
22.0889813431
 21
22.5504329149
 31
0.0
  0
LINE
  5
CE
330
1F
100
AcDbEntity
  8
0
  6
Continuous
 62
     7
370
    25
100
AcDbLine
 10
22.0889813431
 20
22.5504329149
 30
0.0
 11
22.0889813431
 21
23.3004329976
 31
0.0
  0
LINE
  5
CF
330
1F
100
AcDbEntity
  8
0
  6
Continuous
 62
     7
370
    25
100
AcDbLine
 10
21.8889813602
 20
23.3004329976
 30
0.0
 11
21.8889813602
 21
22.5504329149
 31
0.0
  0
LINE
  5
D0
330
1F
100
AcDbEntity
  8
0
  6
Continuous
 62
     7
370
    25
100
AcDbLine
 10
21.4889813944
 20
23.3004329976
 30
0.0
 11
21.4889813944
 21
22.5504329149
 31
0.0
  0
LINE
  5
D1
330
1F
100
AcDbEntity
  8
0
  6
Continuous
 62
     7
370
    25
100
AcDbLine
 10
22.0889813431
 20
23.3004329976
 30
0.0
 11
21.8889813602
 21
23.3004329976
 31
0.0
  0
LINE
  5
D2
330
1F
100
AcDbEntity
  8
0
  6
Continuous
 62
     7
370
    25
100
AcDbLine
 10
19.2064174161
 20
11.8238197097
 30
0.0
 11
17.2064938527
 21
11.8412728414
 31
0.0
  0
LINE
  5
D3
330
1F
100
AcDbEntity
  8
0
  6
Continuous
 62
     7
370
    25
100
AcDbLine
 10
19.2064174161
 20
11.8238197097
 30
0.0
 11
19.1976908502
 21
10.8238573414
 31
0.0
  0
LINE
  5
D4
330
1F
100
AcDbEntity
  8
0
  6
Continuous
 62
     7
370
    25
100
AcDbLine
 10
17.1977667002
 20
10.8413104731
 30
0.0
 11
17.1934054706
 21
10.3415296332
 31
0.0
  0
ARC
  5
D5
330
1F
100
AcDbEntity
  8
0
  6
Continuous
 62
     7
370
    25
100
AcDbCircle
 10
16.2221678648
 20
11.3498436088
 30
0.0
 40
1.400000000000003
100
AcDbArc
 50
45.0729959992
 51
313.9270040008
  0
LINE
  5
D6
330
1F
100
AcDbEntity
  8
0
  6
Continuous
 62
     7
370
    25
100
AcDbLine
 10
17.2108550823
 20
12.3410536812
 30
0.0
 11
17.2064938527
 21
11.8412728414
 31
0.0
  0
CIRCLE
  5
D7
330
1F
100
AcDbEntity
  8
0
  6
Continuous
 62
     7
370
    25
100
AcDbCircle
 10
16.5440279992
 20
12.3519116277
 30
0.0
 40
0.080000000000002
  0
CIRCLE
  5
D8
330
1F
100
AcDbEntity
  8
0
  6
Continuous
 62
     7
370
    25
100
AcDbCircle
 10
15.0517112377
 20
11.0658748151
 30
0.0
 40
0.0799999999999985
  0
CIRCLE
  5
D9
330
1F
100
AcDbEntity
  8
0
  6
Continuous
 62
     7
370
    25
100
AcDbCircle
 10
17.0258676979
 20
10.3876320427
 30
0.0
 40
0.0800000000000003
  0
CIRCLE
  5
DA
330
1F
100
AcDbEntity
  8
0
  6
Continuous
 62
     7
370
    25
100
AcDbCircle
 10
16.2221678648
 20
11.3498436088
 30
0.0
 40
0.8399999999999999
  0
LINE
  5
DB
330
1F
100
AcDbEntity
  8
0
  6
Continuous
 62
     7
370
    25
100
AcDbLine
 10
19.1976908502
 20
10.8238573414
 30
0.0
 11
17.1977667002
 21
10.8413104731
 31
0.0
  0
LINE
  5
DC
330
1F
100
AcDbEntity
  8
0
  6
Continuous
 62
     7
370
    25
100
AcDbLine
 10
14.2626521269
 20
17.633163533
 30
0.0
 11
12.2630512265
 21
17.633163533
 31
0.0
  0
CIRCLE
  5
DD
330
1F
100
AcDbEntity
  8
0
  6
Continuous
 62
     7
370
    25
100
AcDbCircle
 10
14.267690284
 20
18.3000606494
 30
0.0
 40
0.0800000000000001
  0
ARC
  5
DE
330
1F
100
AcDbEntity
  8
0
  6
Continuous
 62
     7
370
    25
100
AcDbCircle
 10
13.2628516968
 20
18.6131639462
 30
0.0
 40
1.400000000000001
100
AcDbArc
 50
315.5729959992
 51
224.4270040008
  0
CIRCLE
  5
DF
330
1F
100
AcDbEntity
  8
0
  6
Continuous
 62
     7
370
    25
100
AcDbCircle
 10
12.307690284
 20
17.8010979422
 30
0.0
 40
0.0799999999999983
  0
CIRCLE
  5
E0
330
1F
100
AcDbEntity
  8
0
  6
Continuous
 62
     7
370
    25
100
AcDbCircle
 10
12.9686796845
 20
19.7810979422
 30
0.0
 40
0.0799999999999983
  0
ARC
  5
E1
330
1F
100
AcDbEntity
  8
0
  6
Continuous
 62
     7
370
    25
100
AcDbCircle
 10
1.6359993581
 20
11.2622662874
 30
0.0
 40
0.9999999999999982
100
AcDbArc
 50
270.0
 51
315.0
  0
LINE
  5
E2
330
1F
100
AcDbEntity
  8
0
  6
Continuous
 62
     7
370
    25
100
AcDbLine
 10
1.5502122088
 20
10.2622663089
 30
0.0
 11
1.6359983111
 21
10.2622663089
 31
0.0
  0
LINE
  5
E3
330
1F
100
AcDbEntity
  8
0
  6
Continuous
 62
     7
370
    25
100
AcDbLine
 10
1.5502122088
 20
10.7622662662
 30
0.0
 11
1.5502122088
 21
10.2622663089
 31
0.0
  0
LINE
  5
E4
330
1F
100
AcDbEntity
  8
0
  6
Continuous
 62
     7
370
    25
100
AcDbLine
 10
1.5502122088
 20
10.7622662662
 30
0.0
 11
3.050212374
 21
12.2622664314
 31
0.0
  0
LINE
  5
E5
330
1F
100
AcDbEntity
  8
0
  6
Continuous
 62
     7
370
    25
100
AcDbLine
 10
3.5502132112
 20
12.1764797424
 30
0.0
 11
3.5502132112
 21
12.2622664314
 31
0.0
  0
ARC
  5
E6
330
1F
100
AcDbEntity
  8
0
  6
Continuous
 62
     7
370
    25
100
AcDbCircle
 10
2.5502129205
 20
12.1764798497
 30
0.0
 40
1.000000000000002
100
AcDbArc
 50
315.0
 51
0.0
  0
LINE
  5
E7
330
1F
100
AcDbEntity
  8
0
  6
Continuous
 62
     7
370
    25
100
AcDbLine
 10
3.2573197414
 20
11.4693732976
 30
0.0
 11
2.3431065158
 21
10.5551594854
 31
0.0
  0
LINE
  5
E8
330
1F
100
AcDbEntity
  8
0
  6
Continuous
 62
     7
370
    25
100
AcDbLine
 10
3.5502132112
 20
12.2622664314
 30
0.0
 11
3.050212374
 21
12.2622664314
 31
0.0
  0
LINE
  5
E9
330
1F
100
AcDbEntity
  8
0
  6
Continuous
 62
     7
370
    25
100
AcDbLine
 10
4.9260808371
 20
11.2598893709
 30
0.0
 11
4.9260808371
 21
11.7598896216
 31
0.0
  0
LINE
  5
EA
330
1F
100
AcDbEntity
  8
0
  6
Continuous
 62
     7
370
    25
100
AcDbLine
 10
4.9260808371
 20
11.7598896216
 30
0.0
 11
5.0118669394
 21
11.7598896216
 31
0.0
  0
ARC
  5
EB
330
1F
100
AcDbEntity
  8
0
  6
Continuous
 62
     7
370
    25
100
AcDbCircle
 10
5.0118674463
 20
10.7598894061
 30
0.0
 40
0.9999999999999982
100
AcDbArc
 50
45.0
 51
90.0
  0
LINE
  5
EC
330
1F
100
AcDbEntity
  8
0
  6
Continuous
 62
     7
370
    25
100
AcDbLine
 10
5.7189751442
 20
11.4669961518
 30
0.0
 11
6.6331883698
 21
10.5527826328
 31
0.0
  0
ARC
  5
ED
330
1F
100
AcDbEntity
  8
0
  6
Continuous
 62
     7
370
    25
100
AcDbCircle
 10
5.9260810087
 20
9.8456758437
 30
0.0
 40
1.000000000000003
100
AcDbArc
 50
0.0
 51
45.0
  0
LINE
  5
EE
330
1F
100
AcDbEntity
  8
0
  6
Continuous
 62
     7
370
    25
100
AcDbLine
 10
6.9260818396
 20
9.8456758947
 30
0.0
 11
6.9260818396
 21
9.7598894991
 31
0.0
  0
LINE
  5
EF
330
1F
100
AcDbEntity
  8
0
  6
Continuous
 62
     7
370
    25
100
AcDbLine
 10
6.9260818396
 20
9.7598894991
 30
0.0
 11
6.4260810023
 21
9.7598894991
 31
0.0
  0
LINE
  5
F0
330
1F
100
AcDbEntity
  8
0
  6
Continuous
 62
     7
370
    25
100
AcDbLine
 10
6.4260810023
 20
9.7598894991
 30
0.0
 11
4.9260808371
 21
11.2598893709
 31
0.0
  0
ARC
  5
F1
330
1F
100
AcDbEntity
  8
0
  6
Continuous
 62
     7
370
    25
100
AcDbCircle
 10
12.8402945711
 20
10.7598894061
 30
0.0
 40
0.9999999999999992
100
AcDbArc
 50
90.0
 51
135.0
  0
LINE
  5
F2
330
1F
100
AcDbEntity
  8
0
  6
Continuous
 62
     7
370
    25
100
AcDbLine
 10
12.9260813271
 20
11.7598896216
 30
0.0
 11
12.8402940514
 21
11.7598896216
 31
0.0
  0
LINE
  5
F3
330
1F
100
AcDbEntity
  8
0
  6
Continuous
 62
     7
370
    25
100
AcDbLine
 10
12.9260813271
 20
11.2598893709
 30
0.0
 11
12.9260813271
 21
11.7598896216
 31
0.0
  0
LINE
  5
F4
330
1F
100
AcDbEntity
  8
0
  6
Continuous
 62
     7
370
    25
100
AcDbLine
 10
12.9260813271
 20
11.2598893709
 30
0.0
 11
11.4260811619
 21
9.7598894991
 31
0.0
  0
LINE
  5
F5
330
1F
100
AcDbEntity
  8
0
  6
Continuous
 62
     7
370
    25
100
AcDbLine
 10
10.9260814979
 20
9.7598894991
 30
0.0
 11
11.4260811619
 21
9.7598894991
 31
0.0
  0
LINE
  5
F6
330
1F
100
AcDbEntity
  8
0
  6
Continuous
 62
     7
370
    25
100
AcDbLine
 10
10.9260814979
 20
9.8456758947
 30
0.0
 11
10.9260814979
 21
9.7598894991
 31
0.0
  0
ARC
  5
F7
330
1F
100
AcDbEntity
  8
0
  6
Continuous
 62
     7
370
    25
100
AcDbCircle
 10
11.9260810087
 20
9.8456758437
 30
0.0
 40
1.0
100
AcDbArc
 50
135.0
 51
180.0
  0
LINE
  5
F8
330
1F
100
AcDbEntity
  8
0
  6
Continuous
 62
     7
370
    25
100
AcDbLine
 10
11.2189737944
 20
10.5527826328
 30
0.0
 11
12.1331881933
 21
11.4669961518
 31
0.0
  0
LINE
  5
F9
330
1F
100
AcDbEntity
  8
0
  6
Continuous
 62
     7
370
    25
100
AcDbLine
 10
9.5502126987
 20
10.7622662662
 30
0.0
 11
9.5502126987
 21
10.2622663089
 31
0.0
  0
LINE
  5
FA
330
1F
100
AcDbEntity
  8
0
  6
Continuous
 62
     7
370
    25
100
AcDbLine
 10
9.5502126987
 20
10.2622663089
 30
0.0
 11
9.4644265964
 21
10.2622663089
 31
0.0
  0
ARC
  5
FB
330
1F
100
AcDbEntity
  8
0
  6
Continuous
 62
     7
370
    25
100
AcDbCircle
 10
9.4644264828
 20
11.2622662874
 30
0.0
 40
1.0
100
AcDbArc
 50
225.0
 51
270.0
  0
LINE
  5
FC
330
1F
100
AcDbEntity
  8
0
  6
Continuous
 62
     7
370
    25
100
AcDbLine
 10
8.757319565
 20
10.5551594854
 30
0.0
 11
7.8431063394
 21
11.4693732976
 31
0.0
  0
LINE
  5
FD
330
1F
100
AcDbEntity
  8
0
  6
Continuous
 62
     7
370
    25
100
AcDbLine
 10
7.5502128696
 20
12.1764797424
 30
0.0
 11
7.5502128696
 21
12.2622664314
 31
0.0
  0
LINE
  5
FE
330
1F
100
AcDbEntity
  8
0
  6
Continuous
 62
     7
370
    25
100
AcDbLine
 10
8.0502137069
 20
12.2622664314
 30
0.0
 11
9.5502126987
 21
10.7622662662
 31
0.0
  0
ARC
  5
FF
330
1F
100
AcDbEntity
  8
0
  6
Continuous
 62
     7
370
    25
100
AcDbCircle
 10
8.5502129205
 20
12.1764798497
 30
0.0
 40
0.9999999999999999
100
AcDbArc
 50
180.0
 51
225.0
  0
LINE
  5
100
330
1F
100
AcDbEntity
  8
0
  6
Continuous
 62
     7
370
    25
100
AcDbLine
 10
7.5502128696
 20
12.2622664314
 30
0.0
 11
8.0502137069
 21
12.2622664314
 31
0.0
  0
ARC
  5
101
330
1F
100
AcDbEntity
  8
0
  6
Continuous
 62
     7
370
    25
100
AcDbCircle
 10
9.2260810087
 20
9.763904199
 30
0.0
 40
0.2000000000000011
100
AcDbArc
 50
0.0
 51
90.0
  0
LINE
  5
102
330
1F
100
AcDbEntity
  8
0
  6
Continuous
 62
     7
370
    25
100
AcDbLine
 10
13.926080655
 20
9.763904306
 30
0.0
 11
9.4260813327
 21
9.763904306
 31
0.0
  0
LINE
  5
103
330
1F
100
AcDbEntity
  8
0
  6
Continuous
 62
     7
370
    25
100
AcDbLine
 10
13.926080655
 20
11.2639044712
 30
0.0
 11
13.926080655
 21
9.763904306
 31
0.0
  0
LINE
  5
104
330
1F
100
AcDbEntity
  8
0
  6
Continuous
 62
     7
370
    25
100
AcDbLine
 10
12.9260813271
 20
11.2639044712
 30
0.0
 11
13.926080655
 21
11.2639044712
 31
0.0
  0
LINE
  5
105
330
1F
100
AcDbEntity
  8
0
  6
Continuous
 62
     7
370
    25
100
AcDbLine
 10
12.9260813271
 20
11.7639041352
 30
0.0
 11
12.9260813271
 21
11.2639044712
 31
0.0
  0
LINE
  5
106
330
1F
100
AcDbEntity
  8
0
  6
Continuous
 62
     7
370
    25
100
AcDbLine
 10
12.9260813271
 20
11.7639041352
 30
0.0
 11
13.926080655
 21
11.7639041352
 31
0.0
  0
ARC
  5
107
330
1F
100
AcDbEntity
  8
0
  6
Continuous
 62
     7
370
    25
100
AcDbCircle
 10
13.9260810087
 20
11.263904199
 30
0.0
 40
0.5
100
AcDbArc
 50
0.0
 51
90.0
  0
LINE
  5
108
330
1F
100
AcDbEntity
  8
0
  6
Continuous
 62
     7
370
    25
100
AcDbLine
 10
14.4260814923
 20
11.2639044712
 30
0.0
 11
14.4260814923
 21
9.2639040554
 31
0.0
  0
ARC
  5
109
330
1F
100
AcDbEntity
  8
0
  6
Continuous
 62
     7
370
    25
100
AcDbCircle
 10
13.9260810087
 20
9.263904199
 30
0.0
 40
0.5
100
AcDbArc
 50
270.0
 51
0.0
  0
ARC
  5
10A
330
1F
100
AcDbEntity
  8
0
  6
Continuous
 62
     7
370
    25
100
AcDbCircle
 10
3.9260810087
 20
9.263904199
 30
0.0
 40
0.5000000000000018
100
AcDbArc
 50
180.0
 51
270.0
  0
LINE
  5
10B
330
1F
100
AcDbEntity
  8
0
  6
Continuous
 62
     7
370
    25
100
AcDbLine
 10
3.4260806719
 20
9.2639040554
 30
0.0
 11
3.4260806719
 21
11.2639044712
 31
0.0
  0
ARC
  5
10C
330
1F
100
AcDbEntity
  8
0
  6
Continuous
 62
     7
370
    25
100
AcDbCircle
 10
3.9260810087
 20
11.263904199
 30
0.0
 40
0.5000000000000018
100
AcDbArc
 50
90.0
 51
180.0
  0
LINE
  5
10D
330
1F
100
AcDbEntity
  8
0
  6
Continuous
 62
     7
370
    25
100
AcDbLine
 10
3.9260815092
 20
11.7639041352
 30
0.0
 11
4.9260808371
 21
11.7639041352
 31
0.0
  0
LINE
  5
10E
330
1F
100
AcDbEntity
  8
0
  6
Continuous
 62
     7
370
    25
100
AcDbLine
 10
4.9260808371
 20
11.2639044712
 30
0.0
 11
4.9260808371
 21
11.7639041352
 31
0.0
  0
LINE
  5
10F
330
1F
100
AcDbEntity
  8
0
  6
Continuous
 62
     7
370
    25
100
AcDbLine
 10
3.9260815092
 20
11.2639044712
 30
0.0
 11
4.9260808371
 21
11.2639044712
 31
0.0
  0
LINE
  5
110
330
1F
100
AcDbEntity
  8
0
  6
Continuous
 62
     7
370
    25
100
AcDbLine
 10
3.9260815092
 20
9.763904306
 30
0.0
 11
3.9260815092
 21
11.2639044712
 31
0.0
  0
LINE
  5
111
330
1F
100
AcDbEntity
  8
0
  6
Continuous
 62
     7
370
    25
100
AcDbLine
 10
8.4260820048
 20
9.763904306
 30
0.0
 11
3.9260815092
 21
9.763904306
 31
0.0
  0
ARC
  5
112
330
1F
100
AcDbEntity
  8
0
  6
Continuous
 62
     7
370
    25
100
AcDbCircle
 10
8.6260810087
 20
9.763904199
 30
0.0
 40
0.2000000000000046
100
AcDbArc
 50
90.0
 51
180.0
  0
LINE
  5
113
330
1F
100
AcDbEntity
  8
0
  6
Continuous
 62
     7
370
    25
100
AcDbLine
 10
8.6260814011
 20
9.9639042889
 30
0.0
 11
9.2260807631
 21
9.9639042889
 31
0.0
  0
LINE
  5
114
330
1F
100
AcDbEntity
  8
0
  6
Continuous
 62
     7
370
    25
100
AcDbLine
 10
8.7510798504
 20
9.2639040554
 30
0.0
 11
8.7510798504
 21
9.6639043146
 31
0.0
  0
ARC
  5
115
330
1F
100
AcDbEntity
  8
0
  6
Continuous
 62
     7
370
    25
100
AcDbCircle
 10
8.9260810087
 20
9.263904199
 30
0.0
 40
0.1750000000000007
100
AcDbArc
 50
180.0
 51
0.0
  0
LINE
  5
116
330
1F
100
AcDbEntity
  8
0
  6
Continuous
 62
     7
370
    25
100
AcDbLine
 10
9.1010811405
 20
9.6639043146
 30
0.0
 11
9.1010811405
 21
9.2639040554
 31
0.0
  0
ARC
  5
117
330
1F
100
AcDbEntity
  8
0
  6
Continuous
 62
     7
370
    25
100
AcDbCircle
 10
8.9260810087
 20
9.663904199
 30
0.0
 40
0.1750000000000007
100
AcDbArc
 50
0.0
 51
180.0
  0
LINE
  5
118
330
1F
100
AcDbEntity
  8
0
  6
Continuous
 62
     7
370
    25
100
AcDbLine
 10
13.926080655
 20
8.7639040981
 30
0.0
 11
3.9260815092
 21
8.7639040981
 31
0.0
  0
LINE
  5
119
330
1F
100
AcDbEntity
  8
0
  6
Continuous
 62
     7
370
    25
100
AcDbLine
 10
0.5502128808
 20
12.2582513311
 30
0.0
 11
0.5502128808
 21
10.7582517526
 31
0.0
  0
LINE
  5
11A
330
1F
100
AcDbEntity
  8
0
  6
Continuous
 62
     7
370
    25
100
AcDbLine
 10
0.5502128808
 20
10.7582517526
 30
0.0
 11
1.5502122088
 21
10.7582517526
 31
0.0
  0
LINE
  5
11B
330
1F
100
AcDbEntity
  8
0
  6
Continuous
 62
     7
370
    25
100
AcDbLine
 10
1.5502122088
 20
10.7582517526
 30
0.0
 11
1.5502122088
 21
10.2582515019
 31
0.0
  0
LINE
  5
11C
330
1F
100
AcDbEntity
  8
0
  6
Continuous
 62
     7
370
    25
100
AcDbLine
 10
0.5502128808
 20
10.2582515019
 30
0.0
 11
1.5502122088
 21
10.2582515019
 31
0.0
  0
ARC
  5
11D
330
1F
100
AcDbEntity
  8
0
  6
Continuous
 62
     7
370
    25
100
AcDbCircle
 10
0.5502129205
 20
10.7582514944
 30
0.0
 40
0.5000000000000018
100
AcDbArc
 50
180.0
 51
270.0
  0
LINE
  5
11E
330
1F
100
AcDbEntity
  8
0
  6
Continuous
 62
     7
370
    25
100
AcDbLine
 10
0.0502120436
 20
12.7582515817
 30
0.0
 11
0.0502120436
 21
10.7582517526
 31
0.0
  0
ARC
  5
11F
330
1F
100
AcDbEntity
  8
0
  6
Continuous
 62
     7
370
    25
100
AcDbCircle
 10
0.5502129205
 20
12.7582514944
 30
0.0
 40
0.5000000000000018
100
AcDbArc
 50
90.0
 51
180.0
  0
LINE
  5
120
330
1F
100
AcDbEntity
  8
0
  6
Continuous
 62
     7
370
    25
100
AcDbLine
 10
10.5502132
 20
13.2582512457
 30
0.0
 11
0.5502128808
 21
13.2582512457
 31
0.0
  0
ARC
  5
121
330
1F
100
AcDbEntity
  8
0
  6
Continuous
 62
     7
370
    25
100
AcDbCircle
 10
10.5502129205
 20
12.7582514944
 30
0.0
 40
0.4999999999999982
100
AcDbArc
 50
0.0
 51
90.0
  0
LINE
  5
122
330
1F
100
AcDbEntity
  8
0
  6
Continuous
 62
     7
370
    25
100
AcDbLine
 10
11.0502128639
 20
10.7582517526
 30
0.0
 11
11.0502128639
 21
12.7582515817
 31
0.0
  0
ARC
  5
123
330
1F
100
AcDbEntity
  8
0
  6
Continuous
 62
     7
370
    25
100
AcDbCircle
 10
10.5502129205
 20
10.7582514944
 30
0.0
 40
0.5
100
AcDbArc
 50
270.0
 51
0.0
  0
LINE
  5
124
330
1F
100
AcDbEntity
  8
0
  6
Continuous
 62
     7
370
    25
100
AcDbLine
 10
9.5502126987
 20
10.2582515019
 30
0.0
 11
10.5502132
 21
10.2582515019
 31
0.0
  0
LINE
  5
125
330
1F
100
AcDbEntity
  8
0
  6
Continuous
 62
     7
370
    25
100
AcDbLine
 10
9.5502126987
 20
10.2582515019
 30
0.0
 11
9.5502126987
 21
10.7582517526
 31
0.0
  0
LINE
  5
126
330
1F
100
AcDbEntity
  8
0
  6
Continuous
 62
     7
370
    25
100
AcDbLine
 10
9.5502126987
 20
10.7582517526
 30
0.0
 11
10.5502132
 21
10.7582517526
 31
0.0
  0
LINE
  5
127
330
1F
100
AcDbEntity
  8
0
  6
Continuous
 62
     7
370
    25
100
AcDbLine
 10
10.5502132
 20
10.7582517526
 30
0.0
 11
10.5502132
 21
12.2582513311
 31
0.0
  0
LINE
  5
128
330
1F
100
AcDbEntity
  8
0
  6
Continuous
 62
     7
370
    25
100
AcDbLine
 10
10.5502132
 20
12.2582513311
 30
0.0
 11
6.0502127044
 21
12.2582513311
 31
0.0
  0
ARC
  5
129
330
1F
100
AcDbEntity
  8
0
  6
Continuous
 62
     7
370
    25
100
AcDbCircle
 10
5.8502129205
 20
12.2582514944
 30
0.0
 40
0.2000000000000028
100
AcDbArc
 50
270.0
 51
0.0
  0
LINE
  5
12A
330
1F
100
AcDbEntity
  8
0
  6
Continuous
 62
     7
370
    25
100
AcDbLine
 10
5.8502133081
 20
12.0582513482
 30
0.0
 11
5.2502127727
 21
12.0582513482
 31
0.0
  0
ARC
  5
12B
330
1F
100
AcDbEntity
  8
0
  6
Continuous
 62
     7
370
    25
100
AcDbCircle
 10
5.2502129205
 20
12.2582514944
 30
0.0
 40
0.2000000000000037
100
AcDbArc
 50
180.0
 51
270.0
  0
LINE
  5
12C
330
1F
100
AcDbEntity
  8
0
  6
Continuous
 62
     7
370
    25
100
AcDbLine
 10
5.0502133765
 20
12.2582513311
 30
0.0
 11
0.5502128808
 21
12.2582513311
 31
0.0
  0
ARC
  5
12D
330
1F
100
AcDbEntity
  8
0
  6
Continuous
 62
     7
370
    25
100
AcDbCircle
 10
5.5502129205
 20
12.7582514944
 30
0.0
 40
0.1750000000000016
100
AcDbArc
 50
0.0
 51
180.0
  0
LINE
  5
12E
330
1F
100
AcDbEntity
  8
0
  6
Continuous
 62
     7
370
    25
100
AcDbLine
 10
5.3752135687
 20
12.7582515817
 30
0.0
 11
5.3752135687
 21
12.3582516159
 31
0.0
  0
ARC
  5
12F
330
1F
100
AcDbEntity
  8
0
  6
Continuous
 62
     7
370
    25
100
AcDbCircle
 10
5.5502129205
 20
12.3582514944
 30
0.0
 40
0.1750000000000016
100
AcDbArc
 50
180.0
 51
0.0
  0
LINE
  5
130
330
1F
100
AcDbEntity
  8
0
  6
Continuous
 62
     7
370
    25
100
AcDbLine
 10
5.7252125121
 20
12.3582516159
 30
0.0
 11
5.7252125121
 21
12.7582515817
 31
0.0
  0
ARC
  5
131
330
1F
100
AcDbEntity
  8
0
  6
Continuous
 62
     7
370
    25
100
AcDbCircle
 10
16.2935138878
 20
9.6593804283
 30
0.0
 40
6.475000000000003
100
AcDbArc
 50
305.2302416577
 51
359.5
  0
ARC
  5
132
330
1F
100
AcDbEntity
  8
0
  6
Continuous
 62
     7
370
    25
100
AcDbCircle
 10
16.2935138878
 20
9.6593804283
 30
0.0
 40
6.225000000000003
100
AcDbArc
 50
304.8285463315
 51
359.5
  0
ARC
  5
133
330
1F
100
AcDbEntity
  8
0
  6
Continuous
 62
     7
370
    25
100
AcDbCircle
 10
16.2935138878
 20
9.6593804283
 30
0.0
 40
6.850000000000002
100
AcDbArc
 50
301.2021007019
 51
359.5
  0
ARC
  5
134
330
1F
100
AcDbEntity
  8
0
  6
Continuous
 62
     7
370
    25
100
AcDbCircle
 10
20.0959829054
 20
4.2310799326
 30
0.0
 40
0.5000000000000012
100
AcDbArc
 50
179.5
 51
239.5
  0
ARC
  5
135
330
1F
100
AcDbEntity
  8
0
  6
Continuous
 62
     7
370
    25
100
AcDbCircle
 10
20.1985639442
 20
4.5264013574
 30
0.0
 40
0.6000000000000004
100
AcDbArc
 50
125.1853347127
 51
179.5
  0
ARC
  5
136
330
1F
100
AcDbEntity
  8
0
  6
Continuous
 62
     7
370
    25
100
AcDbCircle
 10
16.2935138878
 20
9.6593804283
 30
0.0
 40
5.850000000000001
100
AcDbArc
 50
307.4760763926
 51
359.5
  0
LINE
  5
137
330
1F
100
AcDbEntity
  8
0
  6
Continuous
 62
     7
370
    25
100
AcDbLine
 10
23.1511067801
 20
10.4995693542
 30
0.0
 11
23.9010784096
 21
10.4930245765
 31
0.0
  0
ARC
  5
138
330
1F
100
AcDbEntity
  8
0
  6
Continuous
 62
     7
370
    25
100
AcDbCircle
 10
23.4702638048
 20
10.7467936707
 30
0.0
 40
0.500000000000001
100
AcDbArc
 50
269.5
 51
329.5
  0
LINE
  5
139
330
1F
100
AcDbEntity
  8
0
  6
Continuous
 62
     7
370
    25
100
AcDbLine
 10
19.5960018223
 20
4.2354432646
 30
0.0
 11
19.5985866457
 21
4.5316372829
 31
0.0
  0
LINE
  5
13A
330
1F
100
AcDbEntity
  8
0
  6
Continuous
 62
     7
370
    25
100
AcDbLine
 10
22.402880757
 20
10.7061064883
 30
0.0
 11
23.1528520932
 21
10.6995617106
 31
0.0
  0
LINE
  5
13B
330
1F
100
AcDbEntity
  8
0
  6
Continuous
 62
     7
370
    25
100
AcDbLine
 10
21.8989727648
 20
10.2604869695
 30
0.0
 11
22.1489632102
 21
10.2583054747
 31
0.0
  0
LINE
  5
13C
330
1F
100
AcDbEntity
  8
0
  6
Continuous
 62
     7
370
    25
100
AcDbLine
 10
22.1489632102
 20
10.2583054747
 30
0.0
 11
22.1432913824
 21
9.6083303166
 31
0.0
  0
LINE
  5
13D
330
1F
100
AcDbEntity
  8
0
  6
Continuous
 62
     7
370
    25
100
AcDbLine
 10
21.8011583748
 20
10.5113500715
 30
0.0
 11
22.4011354438
 21
10.5061144253
 31
0.0
  0
LINE
  5
13E
330
1F
100
AcDbEntity
  8
0
  6
Continuous
 62
     7
370
    25
100
AcDbLine
 10
19.8487519158
 20
4.5494972633
 30
0.0
 11
20.0287051436
 21
4.370337933
 31
0.0
  0
LINE
  5
13F
330
1F
100
AcDbEntity
  8
0
  6
Continuous
 62
     7
370
    25
100
AcDbLine
 10
23.1489255786
 20
10.2495789088
 30
0.0
 11
23.1432531641
 21
9.5996037507
 31
0.0
  0
LINE
  5
140
330
1F
100
AcDbEntity
  8
0
  6
Continuous
 62
     7
370
    25
100
AcDbLine
 10
22.5182767572
 20
9.6050576344
 30
0.0
 11
22.7682672026
 21
9.6028761396
 31
0.0
  0
ARC
  5
141
330
1F
100
AcDbEntity
  8
0
  6
Continuous
 62
     7
370
    25
100
AcDbCircle
 10
21.8998455585
 20
10.3604832718
 30
0.0
 40
0.0999999999999999
100
AcDbArc
 50
179.5
 51
269.5
  0
LINE
  5
142
330
1F
100
AcDbEntity
  8
0
  6
Continuous
 62
     7
370
    25
100
AcDbLine
 10
22.402880757
 20
10.7061064883
 30
0.0
 11
22.4011354438
 21
10.5061144253
 31
0.0
  0
LINE
  5
143
330
1F
100
AcDbEntity
  8
0
  6
Continuous
 62
     7
370
    25
100
AcDbLine
 10
21.8011583748
 20
10.5113500715
 30
0.0
 11
21.7998495366
 21
10.3613558042
 31
0.0
  0
LINE
  5
144
330
1F
100
AcDbEntity
  8
0
  6
Continuous
 62
     7
370
    25
100
AcDbLine
 10
23.1528520932
 20
10.6995617106
 30
0.0
 11
23.1511067801
 21
10.4995693542
 31
0.0
  0
LINE
  5
145
330
1F
100
AcDbEntity
  8
0
  6
Continuous
 62
     7
370
    25
100
AcDbLine
 10
23.1489255786
 20
10.2495789088
 30
0.0
 11
23.4659002635
 21
10.2468128074
 31
0.0
  0
LINE
  5
146
330
1F
100
AcDbEntity
  8
0
  6
Continuous
 62
     7
370
    25
100
AcDbLine
 10
10.490277679
 20
4.9188171902
 30
0.0
 11
10.490277679
 21
3.9516598896
 31
0.0
  0
LINE
  5
147
330
1F
100
AcDbEntity
  8
0
  6
Continuous
 62
     7
370
    25
100
AcDbLine
 10
12.7902777759
 20
3.9516598896
 30
0.0
 11
14.8902784765
 21
3.9516598896
 31
0.0
  0
LINE
  5
148
330
1F
100
AcDbEntity
  8
0
  6
Continuous
 62
     7
370
    25
100
AcDbLine
 10
10.490277679
 20
3.9516598896
 30
0.0
 11
12.5902783796
 21
3.9516598896
 31
0.0
  0
LINE
  5
149
330
1F
100
AcDbEntity
  8
0
  6
Continuous
 62
     7
370
    25
100
AcDbLine
 10
12.7902777759
 20
3.9516598896
 30
0.0
 11
12.7902777759
 21
4.4516598469
 31
0.0
  0
LINE
  5
14A
330
1F
100
AcDbEntity
  8
0
  6
Continuous
 62
     7
370
    25
100
AcDbLine
 10
12.7902777759
 20
4.4516598469
 30
0.0
 11
12.5902783796
 21
4.4516598469
 31
0.0
  0
LINE
  5
14B
330
1F
100
AcDbEntity
  8
0
  6
Continuous
 62
     7
370
    25
100
AcDbLine
 10
12.5902783796
 20
4.4516598469
 30
0.0
 11
12.5902783796
 21
3.9516598896
 31
0.0
  0
ARC
  5
14C
330
1F
100
AcDbEntity
  8
0
  6
Continuous
 62
     7
370
    25
100
AcDbCircle
 10
14.5902779968
 20
4.9188171736
 30
0.0
 40
0.2999999999999993
100
AcDbArc
 50
0.0
 51
70.5287793655
  0
LINE
  5
14D
330
1F
100
AcDbEntity
  8
0
  6
Continuous
 62
     7
370
    25
100
AcDbLine
 10
10.6902782486
 20
5.2016598928
 30
0.0
 11
10.6902782486
 21
4.7016598988
 31
0.0
  0
ARC
  5
14E
330
1F
100
AcDbEntity
  8
0
  6
Continuous
 62
     7
370
    25
100
AcDbCircle
 10
10.7902779968
 20
4.9188171736
 30
0.0
 40
0.3000000000000008
100
AcDbArc
 50
109.4712206345
 51
180.0
  0
LINE
  5
14F
330
1F
100
AcDbEntity
  8
0
  6
Continuous
 62
     7
370
    25
100
AcDbLine
 10
14.6902779069
 20
5.2016598928
 30
0.0
 11
14.6902779069
 21
4.7016598988
 31
0.0
  0
LINE
  5
150
330
1F
100
AcDbEntity
  8
0
  6
Continuous
 62
     7
370
    25
100
AcDbLine
 10
14.8902784765
 20
3.9516598896
 30
0.0
 11
14.8902784765
 21
4.9188171902
 31
0.0
  0
LINE
  5
151
330
1F
100
AcDbEntity
  8
0
  6
Continuous
 62
     7
370
    25
100
AcDbLine
 10
14.6902779069
 20
4.7016598988
 30
0.0
 11
10.6902782486
 21
4.7016598988
 31
0.0
  0
LINE
  5
152
330
1F
100
AcDbEntity
  8
0
  6
Continuous
 62
     7
370
    25
100
AcDbLine
 10
15.0775379666
 20
4.9283785731
 30
0.0
 11
15.0775379666
 21
3.9612212724
 31
0.0
  0
ARC
  5
153
330
1F
100
AcDbEntity
  8
0
  6
Continuous
 62
     7
370
    25
100
AcDbCircle
 10
15.377537675
 20
4.9283785586
 30
0.0
 40
0.2999999999999988
100
AcDbArc
 50
109.4712206345
 51
180.0
  0
LINE
  5
154
330
1F
100
AcDbEntity
  8
0
  6
Continuous
 62
     7
370
    25
100
AcDbLine
 10
15.2775373629
 20
5.2112212757
 30
0.0
 11
15.2775373629
 21
4.7112212817
 31
0.0
  0
LINE
  5
155
330
1F
100
AcDbEntity
  8
0
  6
Continuous
 62
     7
370
    25
100
AcDbLine
 10
19.2775376079
 20
4.7112212817
 30
0.0
 11
15.2775373629
 21
4.7112212817
 31
0.0
  0
LINE
  5
156
330
1F
100
AcDbEntity
  8
0
  6
Continuous
 62
     7
370
    25
100
AcDbLine
 10
19.2775376079
 20
5.2112212757
 30
0.0
 11
19.2775376079
 21
4.7112212817
 31
0.0
  0
ARC
  5
157
330
1F
100
AcDbEntity
  8
0
  6
Continuous
 62
     7
370
    25
100
AcDbCircle
 10
19.177537675
 20
4.9283785586
 30
0.0
 40
0.3000000000000007
100
AcDbArc
 50
0.0
 51
70.5287793655
  0
LINE
  5
158
330
1F
100
AcDbEntity
  8
0
  6
Continuous
 62
     7
370
    25
100
AcDbLine
 10
19.4775375908
 20
3.9612212724
 30
0.0
 11
19.4775375908
 21
4.9283785731
 31
0.0
  0
LINE
  5
159
330
1F
100
AcDbEntity
  8
0
  6
Continuous
 62
     7
370
    25
100
AcDbLine
 10
17.3775380635
 20
3.9612212724
 30
0.0
 11
19.4775375908
 21
3.9612212724
 31
0.0
  0
LINE
  5
15A
330
1F
100
AcDbEntity
  8
0
  6
Continuous
 62
     7
370
    25
100
AcDbLine
 10
17.3775380635
 20
3.9612212724
 30
0.0
 11
17.3775380635
 21
4.4612212297
 31
0.0
  0
LINE
  5
15B
330
1F
100
AcDbEntity
  8
0
  6
Continuous
 62
     7
370
    25
100
AcDbLine
 10
17.3775380635
 20
4.4612212297
 30
0.0
 11
17.1775374939
 21
4.4612212297
 31
0.0
  0
LINE
  5
15C
330
1F
100
AcDbEntity
  8
0
  6
Continuous
 62
     7
370
    25
100
AcDbLine
 10
17.1775374939
 20
4.4612212297
 30
0.0
 11
17.1775374939
 21
3.9612212724
 31
0.0
  0
LINE
  5
15D
330
1F
100
AcDbEntity
  8
0
  6
Continuous
 62
     7
370
    25
100
AcDbLine
 10
15.0775379666
 20
3.9612212724
 30
0.0
 11
17.1775374939
 21
3.9612212724
 31
0.0
  0
LINE
  5
15E
330
1F
100
AcDbEntity
  8
0
  6
Continuous
 62
     7
370
    25
100
AcDbLine
 10
8.1381516777
 20
19.7867333214
 30
0.0
 11
7.1381523497
 21
19.7867333214
 31
0.0
  0
LINE
  5
15F
330
1F
100
AcDbEntity
  8
0
  6
Continuous
 62
     7
370
    25
100
AcDbLine
 10
7.7381528851
 20
18.8867336916
 30
0.0
 11
7.7381528851
 21
19.2867336575
 31
0.0
  0
LINE
  5
160
330
1F
100
AcDbEntity
  8
0
  6
Continuous
 62
     7
370
    25
100
AcDbLine
 10
8.1381516777
 20
18.8867336916
 30
0.0
 11
8.1381516777
 21
19.7867333214
 31
0.0
  0
LINE
  5
161
330
1F
100
AcDbEntity
  8
0
  6
Continuous
 62
     7
370
    25
100
AcDbLine
 10
7.5381534889
 20
18.136733609
 30
0.0
 11
8.1381516777
 21
18.136733609
 31
0.0
  0
ARC
  5
162
330
1F
100
AcDbEntity
  8
0
  6
Continuous
 62
     7
370
    25
100
AcDbCircle
 10
7.6381527738
 20
18.1367332321
 30
0.0
 40
0.5000000000000018
100
AcDbArc
 50
180.0
 51
270.0
  0
LINE
  5
163
330
1F
100
AcDbEntity
  8
0
  6
Continuous
 62
     7
370
    25
100
AcDbLine
 10
7.5381534889
 20
19.2867336575
 30
0.0
 11
7.5381534889
 21
18.136733609
 31
0.0
  0
LINE
  5
164
330
1F
100
AcDbEntity
  8
0
  6
Continuous
 62
     7
370
    25
100
AcDbLine
 10
7.7381528851
 20
19.2867336575
 30
0.0
 11
7.5381534889
 21
19.2867336575
 31
0.0
  0
LINE
  5
165
330
1F
100
AcDbEntity
  8
0
  6
Continuous
 62
     7
370
    25
100
AcDbLine
 10
8.1381516777
 20
18.8867336916
 30
0.0
 11
7.7381528851
 21
18.8867336916
 31
0.0
  0
ARC
  5
166
330
1F
100
AcDbEntity
  8
0
  6
Continuous
 62
     7
370
    25
100
AcDbCircle
 10
7.6381527738
 20
18.1367332321
 30
0.0
 40
0.5000000000000018
100
AcDbArc
 50
270.0
 51
0.0
  0
LINE
  5
167
330
1F
100
AcDbEntity
  8
0
  6
Continuous
 62
     7
370
    25
100
AcDbLine
 10
7.1381523497
 20
19.7867333214
 30
0.0
 11
7.1381523497
 21
18.136733609
 31
0.0
  0
LINE
  5
168
330
1F
100
AcDbEntity
  8
0
  6
Continuous
 62
     7
370
    25
100
AcDbLine
 10
5.7989955531
 20
14.0742939787
 30
0.0
 11
5.8042332526
 21
14.6742710477
 31
0.0
  0
ARC
  5
169
330
1F
100
AcDbEntity
  8
0
  6
Continuous
 62
     7
370
    25
100
AcDbCircle
 10
5.7998688733
 20
14.1742903433
 30
0.0
 40
0.500000000000001
100
AcDbArc
 50
359.5
 51
89.5
  0
ARC
  5
16A
330
1F
100
AcDbEntity
  8
0
  6
Continuous
 62
     7
370
    25
100
AcDbCircle
 10
5.7998688733
 20
14.1742903433
 30
0.0
 40
0.500000000000001
100
AcDbArc
 50
269.5
 51
359.5
  0
LINE
  5
16B
330
1F
100
AcDbEntity
  8
0
  6
Continuous
 62
     7
370
    25
100
AcDbLine
 10
4.1542945528
 20
14.688670028
 30
0.0
 11
4.1455674003
 21
13.6887082463
 31
0.0
  0
LINE
  5
16C
330
1F
100
AcDbEntity
  8
0
  6
Continuous
 62
     7
370
    25
100
AcDbLine
 10
5.0542613297
 20
14.6808164121
 30
0.0
 11
4.1542945528
 21
14.688670028
 31
0.0
  0
LINE
  5
16D
330
1F
100
AcDbEntity
  8
0
  6
Continuous
 62
     7
370
    25
100
AcDbLine
 10
4.6490389175
 20
14.0843293828
 30
0.0
 11
5.7989955531
 21
14.0742939787
 31
0.0
  0
LINE
  5
16E
330
1F
100
AcDbEntity
  8
0
  6
Continuous
 62
     7
370
    25
100
AcDbLine
 10
4.1455674003
 20
13.6887082463
 30
0.0
 11
5.7955061001
 21
13.674309266
 31
0.0
  0
LINE
  5
16F
330
1F
100
AcDbEntity
  8
0
  6
Continuous
 62
     7
370
    25
100
AcDbLine
 10
5.05076953
 20
14.2808316994
 30
0.0
 11
4.6507848173
 21
14.2843223258
 31
0.0
  0
LINE
  5
170
330
1F
100
AcDbEntity
  8
0
  6
Continuous
 62
     7
370
    25
100
AcDbLine
 10
4.6507848173
 20
14.2843223258
 30
0.0
 11
4.6490389175
 21
14.0843293828
 31
0.0
  0
LINE
  5
171
330
1F
100
AcDbEntity
  8
0
  6
Continuous
 62
     7
370
    25
100
AcDbLine
 10
5.0542613297
 20
14.6808164121
 30
0.0
 11
5.05076953
 21
14.2808316994
 31
0.0
  0
LINE
  5
172
330
1F
100
AcDbEntity
  8
0
  6
Continuous
 62
     7
370
    25
100
AcDbLine
 10
12.007811935
 20
16.6562844713
 30
0.0
 11
12.007811935
 21
16.4562850751
 31
0.0
  0
LINE
  5
173
330
1F
100
AcDbEntity
  8
0
  6
Continuous
 62
     7
370
    25
100
AcDbLine
 10
12.007811935
 20
16.4562850751
 30
0.0
 11
12.7578120176
 21
16.4562850751
 31
0.0
  0
LINE
  5
174
330
1F
100
AcDbEntity
  8
0
  6
Continuous
 62
     7
370
    25
100
AcDbLine
 10
12.7578120176
 20
16.4562850751
 30
0.0
 11
12.7578120176
 21
16.6562844713
 31
0.0
  0
LINE
  5
175
330
1F
100
AcDbEntity
  8
0
  6
Continuous
 62
     7
370
    25
100
AcDbLine
 10
12.7578120176
 20
16.6562844713
 30
0.0
 11
12.007811935
 21
16.6562844713
 31
0.0
  0
LINE
  5
176
330
1F
100
AcDbEntity
  8
0
  6
Continuous
 62
     7
370
    25
100
AcDbLine
 10
18.6578129803
 20
18.6062844514
 30
0.0
 11
18.6578129803
 21
18.4062850552
 31
0.0
  0
LINE
  5
177
330
1F
100
AcDbEntity
  8
0
  6
Continuous
 62
     7
370
    25
100
AcDbLine
 10
18.6578129803
 20
18.4062850552
 30
0.0
 11
19.1578126443
 21
18.4062850552
 31
0.0
  0
LINE
  5
178
330
1F
100
AcDbEntity
  8
0
  6
Continuous
 62
     7
370
    25
100
AcDbLine
 10
19.1578126443
 20
18.4062850552
 30
0.0
 11
19.1578126443
 21
18.6062844514
 31
0.0
  0
LINE
  5
179
330
1F
100
AcDbEntity
  8
0
  6
Continuous
 62
     7
370
    25
100
AcDbLine
 10
19.1578126443
 20
18.6062844514
 30
0.0
 11
18.6578129803
 21
18.6062844514
 31
0.0
  0
CIRCLE
  5
17A
330
1F
100
AcDbEntity
  8
0
  6
Continuous
 62
     7
370
    25
100
AcDbCircle
 10
10.757812511
 20
18.7062847387
 30
0.0
 40
0.1250000000000036
  0
CIRCLE
  5
17B
330
1F
100
AcDbEntity
  8
0
  6
Continuous
 62
     7
370
    25
100
AcDbCircle
 10
19.957812511
 20
18.7062847387
 30
0.0
 40
0.1250000000000036
  0
LINE
  5
17C
330
1F
100
AcDbEntity
  8
0
  6
Continuous
 62
     7
370
    25
100
AcDbLine
 10
17.3578122114
 20
23.106284947
 30
0.0
 11
16.3578128834
 21
23.106284947
 31
0.0
  0
LINE
  5
17D
330
1F
100
AcDbEntity
  8
0
  6
Continuous
 62
     7
370
    25
100
AcDbLine
 10
17.3578122114
 20
23.3062843433
 30
0.0
 11
17.3578122114
 21
23.106284947
 31
0.0
  0
LINE
  5
17E
330
1F
100
AcDbEntity
  8
0
  6
Continuous
 62
     7
370
    25
100
AcDbLine
 10
16.3578128834
 20
23.3062843433
 30
0.0
 11
17.3578122114
 21
23.3062843433
 31
0.0
  0
LINE
  5
17F
330
1F
100
AcDbEntity
  8
0
  6
Continuous
 62
     7
370
    25
100
AcDbLine
 10
16.3578128834
 20
23.106284947
 30
0.0
 11
16.3578128834
 21
23.3062843433
 31
0.0
  0
LINE
  5
180
330
1F
100
AcDbEntity
  8
0
  6
Continuous
 62
     7
370
    25
100
AcDbLine
 10
17.3578122114
 20
14.1062845425
 30
0.0
 11
17.3578122114
 21
14.3062845254
 31
0.0
  0
LINE
  5
181
330
1F
100
AcDbEntity
  8
0
  6
Continuous
 62
     7
370
    25
100
AcDbLine
 10
17.3578122114
 20
14.3062845254
 30
0.0
 11
16.3578128834
 21
14.3062845254
 31
0.0
  0
LINE
  5
182
330
1F
100
AcDbEntity
  8
0
  6
Continuous
 62
     7
370
    25
100
AcDbLine
 10
16.3578128834
 20
14.3062845254
 30
0.0
 11
16.3578128834
 21
14.1062845425
 31
0.0
  0
LINE
  5
183
330
1F
100
AcDbEntity
  8
0
  6
Continuous
 62
     7
370
    25
100
AcDbLine
 10
16.3578128834
 20
14.1062845425
 30
0.0
 11
17.3578122114
 21
14.1062845425
 31
0.0
  0
LINE
  5
184
330
1F
100
AcDbEntity
  8
0
  6
Continuous
 62
     7
370
    25
100
AcDbLine
 10
20.3578125418
 20
14.7062844912
 30
0.0
 11
20.3578125418
 21
22.7062849812
 31
0.0
  0
ARC
  5
185
330
1F
100
AcDbEntity
  8
0
  6
Continuous
 62
     7
370
    25
100
AcDbCircle
 10
19.357812511
 20
14.7062847387
 30
0.0
 40
1.000000000000002
100
AcDbArc
 50
270.0
 51
0.0
  0
LINE
  5
186
330
1F
100
AcDbEntity
  8
0
  6
Continuous
 62
     7
370
    25
100
AcDbLine
 10
11.3578127239
 20
13.7062845766
 30
0.0
 11
19.3578126272
 21
13.7062845766
 31
0.0
  0
ARC
  5
187
330
1F
100
AcDbEntity
  8
0
  6
Continuous
 62
     7
370
    25
100
AcDbCircle
 10
11.357812511
 20
14.7062847387
 30
0.0
 40
1.000000000000002
100
AcDbArc
 50
180.0
 51
270.0
  0
LINE
  5
188
330
1F
100
AcDbEntity
  8
0
  6
Continuous
 62
     7
370
    25
100
AcDbLine
 10
10.3578122226
 20
22.7062849812
 30
0.0
 11
10.3578122226
 21
14.7062844912
 31
0.0
  0
ARC
  5
189
330
1F
100
AcDbEntity
  8
0
  6
Continuous
 62
     7
370
    25
100
AcDbCircle
 10
11.357812511
 20
22.7062847387
 30
0.0
 40
1.000000000000004
100
AcDbArc
 50
90.0
 51
180.0
  0
LINE
  5
18A
330
1F
100
AcDbEntity
  8
0
  6
Continuous
 62
     7
370
    25
100
AcDbLine
 10
13.357812553
 20
23.3062843433
 30
0.0
 11
13.357812553
 21
23.106284947
 31
0.0
  0
LINE
  5
18B
330
1F
100
AcDbEntity
  8
0
  6
Continuous
 62
     7
370
    25
100
AcDbLine
 10
13.357812553
 20
23.106284947
 30
0.0
 11
14.3578130543
 21
23.106284947
 31
0.0
  0
LINE
  5
18C
330
1F
100
AcDbEntity
  8
0
  6
Continuous
 62
     7
370
    25
100
AcDbLine
 10
14.3578130543
 20
23.106284947
 30
0.0
 11
14.3578130543
 21
23.3062843433
 31
0.0
  0
LINE
  5
18D
330
1F
100
AcDbEntity
  8
0
  6
Continuous
 62
     7
370
    25
100
AcDbLine
 10
14.3578130543
 20
23.3062843433
 30
0.0
 11
13.357812553
 21
23.3062843433
 31
0.0
  0
LINE
  5
18E
330
1F
100
AcDbEntity
  8
0
  6
Continuous
 62
     7
370
    25
100
AcDbLine
 10
13.357812553
 20
14.3062845254
 30
0.0
 11
14.3578130543
 21
14.3062845254
 31
0.0
  0
LINE
  5
18F
330
1F
100
AcDbEntity
  8
0
  6
Continuous
 62
     7
370
    25
100
AcDbLine
 10
13.357812553
 20
14.1062845425
 30
0.0
 11
13.357812553
 21
14.3062845254
 31
0.0
  0
LINE
  5
190
330
1F
100
AcDbEntity
  8
0
  6
Continuous
 62
     7
370
    25
100
AcDbLine
 10
14.3578130543
 20
14.1062845425
 30
0.0
 11
13.357812553
 21
14.1062845425
 31
0.0
  0
LINE
  5
191
330
1F
100
AcDbEntity
  8
0
  6
Continuous
 62
     7
370
    25
100
AcDbLine
 10
14.3578130543
 20
14.3062845254
 30
0.0
 11
14.3578130543
 21
14.1062845425
 31
0.0
  0
LINE
  5
192
330
1F
100
AcDbEntity
  8
0
  6
Continuous
 62
     7
370
    25
100
AcDbLine
 10
17.3328122868
 20
22.6309519848
 30
0.0
 11
14.1328125602
 21
22.6309519848
 31
0.0
  0
LINE
  5
193
330
1F
100
AcDbEntity
  8
0
  6
Continuous
 62
     7
370
    25
100
AcDbLine
 10
14.1328125602
 20
22.6309519848
 30
0.0
 11
13.4328123266
 21
21.70628448
 31
0.0
  0
LINE
  5
194
330
1F
100
AcDbEntity
  8
0
  6
Continuous
 62
     7
370
    25
100
AcDbLine
 10
13.4328123266
 20
21.70628448
 30
0.0
 11
13.4328123266
 21
20.706285152
 31
0.0
  0
LINE
  5
195
330
1F
100
AcDbEntity
  8
0
  6
Continuous
 62
     7
370
    25
100
AcDbLine
 10
13.4328123266
 20
20.706285152
 30
0.0
 11
12.9328126627
 21
20.2062843148
 31
0.0
  0
LINE
  5
196
330
1F
100
AcDbEntity
  8
0
  6
Continuous
 62
     7
370
    25
100
AcDbLine
 10
11.6828129161
 20
20.2062843148
 30
0.0
 11
12.9328126627
 21
20.2062843148
 31
0.0
  0
LINE
  5
197
330
1F
100
AcDbEntity
  8
0
  6
Continuous
 62
     7
370
    25
100
AcDbLine
 10
11.6828129161
 20
20.2062843148
 30
0.0
 11
11.6828129161
 21
17.2062851577
 31
0.0
  0
LINE
  5
198
330
1F
100
AcDbEntity
  8
0
  6
Continuous
 62
     7
370
    25
100
AcDbLine
 10
11.6828129161
 20
17.2062851577
 30
0.0
 11
13.1828130813
 21
17.2062851577
 31
0.0
  0
LINE
  5
199
330
1F
100
AcDbEntity
  8
0
  6
Continuous
 62
     7
370
    25
100
AcDbLine
 10
13.1828130813
 20
17.2062851577
 30
0.0
 11
13.4328123266
 21
16.956284739
 31
0.0
  0
LINE
  5
19A
330
1F
100
AcDbEntity
  8
0
  6
Continuous
 62
     7
370
    25
100
AcDbLine
 10
13.4328123266
 20
16.956284739
 30
0.0
 11
13.4328123266
 21
15.7062849925
 31
0.0
  0
LINE
  5
19B
330
1F
100
AcDbEntity
  8
0
  6
Continuous
 62
     7
370
    25
100
AcDbLine
 10
13.4328123266
 20
15.7062849925
 30
0.0
 11
14.4407292164
 21
15.7062849925
 31
0.0
  0
LINE
  5
19C
330
1F
100
AcDbEntity
  8
0
  6
Continuous
 62
     7
370
    25
100
AcDbLine
 10
14.4407292164
 20
15.7062849925
 30
0.0
 11
14.7078119977
 21
15.2062847418
 31
0.0
  0
LINE
  5
19D
330
1F
100
AcDbEntity
  8
0
  6
Continuous
 62
     7
370
    25
100
AcDbLine
 10
14.7078119977
 20
15.2062847418
 30
0.0
 11
16.0078127667
 21
15.2062847418
 31
0.0
  0
LINE
  5
19E
330
1F
100
AcDbEntity
  8
0
  6
Continuous
 62
     7
370
    25
100
AcDbLine
 10
16.0078127667
 20
15.2062847418
 30
0.0
 11
16.274895548
 21
15.7062849925
 31
0.0
  0
LINE
  5
19F
330
1F
100
AcDbEntity
  8
0
  6
Continuous
 62
     7
370
    25
100
AcDbLine
 10
16.274895548
 20
15.7062849925
 30
0.0
 11
17.6328125545
 21
15.7062849925
 31
0.0
  0
LINE
  5
1A0
330
1F
100
AcDbEntity
  8
0
  6
Continuous
 62
     7
370
    25
100
AcDbLine
 10
17.6328125545
 20
22.2346655761
 30
0.0
 11
17.6328125545
 21
15.7062849925
 31
0.0
  0
LINE
  5
1A1
330
1F
100
AcDbEntity
  8
0
  6
Continuous
 62
     7
370
    25
100
AcDbLine
 10
17.6328125545
 20
22.2346655761
 30
0.0
 11
17.3328122868
 21
22.6309519848
 31
0.0
  0
CIRCLE
  5
1A2
330
1F
100
AcDbEntity
  8
0
  6
Continuous
 62
     7
370
    25
100
AcDbCircle
 10
12.4995732272
 20
16.9113492243
 30
0.0
 40
0.0629921259842519
  0
CIRCLE
  5
1A3
330
1F
100
AcDbEntity
  8
0
  6
Continuous
 62
     7
370
    25
100
AcDbCircle
 10
12.5288381705
 20
20.5682504222
 30
0.0
 40
0.0629921259842554
  0
CIRCLE
  5
1A4
330
1F
100
AcDbEntity
  8
0
  6
Continuous
 62
     7
370
    25
100
AcDbCircle
 10
12.8992703649
 20
21.457701571
 30
0.0
 40
0.0629921259842519
  0
CIRCLE
  5
1A5
330
1F
100
AcDbEntity
  8
0
  6
Continuous
 62
     7
370
    25
100
AcDbCircle
 10
17.7557521199
 20
21.0332177854
 30
0.0
 40
0.0629921259842483
  0
CIRCLE
  5
1A6
330
1F
100
AcDbEntity
  8
0
  6
Continuous
 62
     7
370
    25
100
AcDbCircle
 10
18.6524821686
 20
20.680771227
 30
0.0
 40
0.0629921259842554
  0
CIRCLE
  5
1A7
330
1F
100
AcDbEntity
  8
0
  6
Continuous
 62
     7
370
    25
100
AcDbCircle
 10
18.6897827933
 20
16.8066143609
 30
0.0
 40
0.0629921259842519
  0
CIRCLE
  5
1A8
330
1F
100
AcDbEntity
  8
0
  6
Continuous
 62
     7
370
    25
100
AcDbCircle
 10
17.7793763058
 20
16.4911727908
 30
0.0
 40
0.0629921259842519
  0
CIRCLE
  5
1A9
330
1F
100
AcDbEntity
  8
0
  6
Continuous
 62
     7
370
    25
100
AcDbCircle
 10
12.8777531437
 20
16.0251645328
 30
0.0
 40
0.0629921259842519
  0
CIRCLE
  5
1AA
330
1F
100
AcDbEntity
  8
0
  6
Continuous
 62
     7
370
    25
100
AcDbCircle
 10
14.2849778654
 20
13.8271508804
 30
0.0
 40
0.0649999999999977
  0
CIRCLE
  5
1AB
330
1F
100
AcDbEntity
  8
0
  6
Continuous
 62
     7
370
    25
100
AcDbCircle
 10
14.2849778654
 20
15.1854185969
 30
0.0
 40
0.0650000000000013
  0
CIRCLE
  5
1AC
330
1F
100
AcDbEntity
  8
0
  6
Continuous
 62
     7
370
    25
100
AcDbCircle
 10
16.4306471567
 20
15.1854185969
 30
0.0
 40
0.0650000000000013
  0
CIRCLE
  5
1AD
330
1F
100
AcDbEntity
  8
0
  6
Continuous
 62
     7
370
    25
100
AcDbCircle
 10
16.4306471567
 20
13.8271508804
 30
0.0
 40
0.0649999999999977
  0
CIRCLE
  5
1AE
330
1F
100
AcDbEntity
  8
0
  6
Continuous
 62
     7
370
    25
100
AcDbCircle
 10
19.357812511
 20
13.7952611166
 30
0.0
 40
0.0650000000000013
  0
CIRCLE
  5
1AF
330
1F
100
AcDbEntity
  8
0
  6
Continuous
 62
     7
370
    25
100
AcDbCircle
 10
16.7593873142
 20
13.7952611166
 30
0.0
 40
0.0649999999999977
  0
CIRCLE
  5
1B0
330
1F
100
AcDbEntity
  8
0
  6
Continuous
 62
     7
370
    25
100
AcDbCircle
 10
16.7593873142
 20
15.6062847387
 30
0.0
 40
0.0649999999999977
  0
CIRCLE
  5
1B1
330
1F
100
AcDbEntity
  8
0
  6
Continuous
 62
     7
370
    25
100
AcDbCircle
 10
19.357812511
 20
15.6062847387
 30
0.0
 40
0.0649999999999977
  0
CIRCLE
  5
1B2
330
1F
100
AcDbEntity
  8
0
  6
Continuous
 62
     7
370
    25
100
AcDbCircle
 10
17.946788889
 20
20.1078595418
 30
0.0
 40
0.0649999999999977
  0
CIRCLE
  5
1B3
330
1F
100
AcDbEntity
  8
0
  6
Continuous
 62
     7
370
    25
100
AcDbCircle
 10
19.757812511
 20
20.1078595418
 30
0.0
 40
0.0649999999999977
  0
CIRCLE
  5
1B4
330
1F
100
AcDbEntity
  8
0
  6
Continuous
 62
     7
370
    25
100
AcDbCircle
 10
19.757812511
 20
22.7062847387
 30
0.0
 40
0.0650000000000013
  0
CIRCLE
  5
1B5
330
1F
100
AcDbEntity
  8
0
  6
Continuous
 62
     7
370
    25
100
AcDbCircle
 10
17.946788889
 20
22.7062847387
 30
0.0
 40
0.0650000000000013
  0
ARC
  5
1B6
330
1F
100
AcDbEntity
  8
0
  6
Continuous
 62
     7
370
    25
100
AcDbCircle
 10
19.357812511
 20
22.7062847387
 30
0.0
 40
1.000000000000004
100
AcDbArc
 50
0.0
 51
90.0
  0
LINE
  5
1B7
330
1F
100
AcDbEntity
  8
0
  6
Continuous
 62
     7
370
    25
100
AcDbLine
 10
19.3578126272
 20
23.7062843091
 30
0.0
 11
11.3578127239
 21
23.7062843091
 31
0.0
  0
LINE
  5
1B8
330
1F
100
AcDbEntity
  8
0
  6
Continuous
 62
     7
370
    25
100
AcDbLine
 10
18.1262263746
 20
12.9781135219
 30
0.0
 11
18.1262263746
 21
13.1931138115
 31
0.0
  0
LINE
  5
1B9
330
1F
100
AcDbEntity
  8
0
  6
Continuous
 62
     7
370
    25
100
AcDbLine
 10
21.1262261183
 20
12.9781135219
 30
0.0
 11
18.1262263746
 21
12.9781135219
 31
0.0
  0
LINE
  5
1BA
330
1F
100
AcDbEntity
  8
0
  6
Continuous
 62
     7
370
    25
100
AcDbLine
 10
21.1262261183
 20
12.6431137118
 30
0.0
 11
21.1262261183
 21
12.9781135219
 31
0.0
  0
ARC
  5
1BB
330
1F
100
AcDbEntity
  8
0
  6
Continuous
 62
     7
370
    25
100
AcDbCircle
 10
20.9262263395
 20
12.6431137579
 30
0.0
 40
0.1999999999999993
100
AcDbArc
 50
270.0
 51
0.0
  0
LINE
  5
1BC
330
1F
100
AcDbEntity
  8
0
  6
Continuous
 62
     7
370
    25
100
AcDbLine
 10
19.4762264059
 20
12.4431137289
 30
0.0
 11
20.9262261354
 21
12.4431137289
 31
0.0
  0
LINE
  5
1BD
330
1F
100
AcDbEntity
  8
0
  6
Continuous
 62
     7
370
    25
100
AcDbLine
 10
19.4762264059
 20
12.243113746
 30
0.0
 11
19.4762264059
 21
12.4431137289
 31
0.0
  0
LINE
  5
1BE
330
1F
100
AcDbEntity
  8
0
  6
Continuous
 62
     7
370
    25
100
AcDbLine
 10
18.4762264913
 20
12.243113746
 30
0.0
 11
19.4762264059
 21
12.243113746
 31
0.0
  0
LINE
  5
1BF
330
1F
100
AcDbEntity
  8
0
  6
Continuous
 62
     7
370
    25
100
AcDbLine
 10
18.4762264913
 20
12.243113746
 30
0.0
 11
18.4762264913
 21
12.4431137289
 31
0.0
  0
LINE
  5
1C0
330
1F
100
AcDbEntity
  8
0
  6
Continuous
 62
     7
370
    25
100
AcDbLine
 10
17.376226292
 20
12.4431137289
 30
0.0
 11
18.4762264913
 21
12.4431137289
 31
0.0
  0
ELLIPSE
  5
1C1
330
1F
100
AcDbEntity
  8
0
  6
Continuous
 62
     7
370
    25
100
AcDbEllipse
 10
16.1262263395
 20
12.4431137579
 30
0.0
 11
1.25
 21
-1.776356839400250E-15
 31
0.0
210
-4.971967042033548E-30
220
-3.498710768406355E-15
230
1.0
 40
0.4886781363
 41
0.0
 42
3.141592653589825
  0
LINE
  5
1C2
330
1F
100
AcDbEntity
  8
0
  6
Continuous
 62
     7
370
    25
100
AcDbLine
 10
13.7762265995
 20
12.4431137289
 30
0.0
 11
14.8762267988
 21
12.4431137289
 31
0.0
  0
LINE
  5
1C3
330
1F
100
AcDbEntity
  8
0
  6
Continuous
 62
     7
370
    25
100
AcDbLine
 10
13.7762265995
 20
12.243113746
 30
0.0
 11
13.7762265995
 21
12.4431137289
 31
0.0
  0
LINE
  5
1C4
330
1F
100
AcDbEntity
  8
0
  6
Continuous
 62
     7
370
    25
100
AcDbLine
 10
13.7762265995
 20
12.243113746
 30
0.0
 11
12.7762260982
 21
12.243113746
 31
0.0
  0
LINE
  5
1C5
330
1F
100
AcDbEntity
  8
0
  6
Continuous
 62
     7
370
    25
100
AcDbLine
 10
12.7762260982
 20
12.243113746
 30
0.0
 11
12.7762260982
 21
12.4431137289
 31
0.0
  0
LINE
  5
1C6
330
1F
100
AcDbEntity
  8
0
  6
Continuous
 62
     7
370
    25
100
AcDbLine
 10
11.3262257821
 20
12.4431137289
 30
0.0
 11
12.7762260982
 21
12.4431137289
 31
0.0
  0
ARC
  5
1C7
330
1F
100
AcDbEntity
  8
0
  6
Continuous
 62
     7
370
    25
100
AcDbCircle
 10
11.3262263395
 20
12.6431137579
 30
0.0
 40
0.1999999999999993
100
AcDbArc
 50
180.0
 51
270.0
  0
LINE
  5
1C8
330
1F
100
AcDbEntity
  8
0
  6
Continuous
 62
     7
370
    25
100
AcDbLine
 10
11.1262263858
 20
12.9781135219
 30
0.0
 11
11.1262263858
 21
12.6431137118
 31
0.0
  0
LINE
  5
1C9
330
1F
100
AcDbEntity
  8
0
  6
Continuous
 62
     7
370
    25
100
AcDbLine
 10
11.1262263858
 20
12.9781135219
 30
0.0
 11
14.1262267162
 21
12.9781135219
 31
0.0
  0
LINE
  5
1CA
330
1F
100
AcDbEntity
  8
0
  6
Continuous
 62
     7
370
    25
100
AcDbLine
 10
14.1262267162
 20
12.9781135219
 30
0.0
 11
14.1262267162
 21
13.1931138115
 31
0.0
  0
LINE
  5
1CB
330
1F
100
AcDbEntity
  8
0
  6
Continuous
 62
     7
370
    25
100
AcDbLine
 10
14.1262267162
 20
13.1931138115
 30
0.0
 11
11.1262263858
 21
13.1931138115
 31
0.0
  0
ARC
  5
1CC
330
1F
100
AcDbEntity
  8
0
  6
Continuous
 62
     7
370
    25
100
AcDbCircle
 10
11.2994314203
 20
13.0931137579
 30
0.0
 40
0.2000000000000028
100
AcDbArc
 50
90.0
 51
150.0
  0
LINE
  5
1CD
330
1F
100
AcDbEntity
  8
0
  6
Continuous
 62
     7
370
    25
100
AcDbLine
 10
14.1262267162
 20
13.2931135096
 30
0.0
 11
11.2994318516
 21
13.2931135096
 31
0.0
  0
LINE
  5
1CE
330
1F
100
AcDbEntity
  8
0
  6
Continuous
 62
     7
370
    25
100
AcDbLine
 10
14.1262267162
 20
13.4931134925
 30
0.0
 11
14.1262267162
 21
13.2931135096
 31
0.0
  0
LINE
  5
1CF
330
1F
100
AcDbEntity
  8
0
  6
Continuous
 62
     7
370
    25
100
AcDbLine
 10
14.1262267162
 20
13.4931134925
 30
0.0
 11
15.1262260442
 21
13.4931134925
 31
0.0
  0
LINE
  5
1D0
330
1F
100
AcDbEntity
  8
0
  6
Continuous
 62
     7
370
    25
100
AcDbLine
 10
15.1262260442
 20
13.4931134925
 30
0.0
 11
15.1262260442
 21
13.2931135096
 31
0.0
  0
LINE
  5
1D1
330
1F
100
AcDbEntity
  8
0
  6
Continuous
 62
     7
370
    25
100
AcDbLine
 10
17.1262258733
 20
13.2931135096
 30
0.0
 11
15.1262260442
 21
13.2931135096
 31
0.0
  0
LINE
  5
1D2
330
1F
100
AcDbEntity
  8
0
  6
Continuous
 62
     7
370
    25
100
AcDbLine
 10
17.1262258733
 20
13.4931134925
 30
0.0
 11
17.1262258733
 21
13.2931135096
 31
0.0
  0
LINE
  5
1D3
330
1F
100
AcDbEntity
  8
0
  6
Continuous
 62
     7
370
    25
100
AcDbLine
 10
20.9530212392
 20
13.2931135096
 30
0.0
 11
18.1262263746
 21
13.2931135096
 31
0.0
  0
ARC
  5
1D4
330
1F
100
AcDbEntity
  8
0
  6
Continuous
 62
     7
370
    25
100
AcDbCircle
 10
20.9530212587
 20
13.0931137579
 30
0.0
 40
0.2000000000000028
100
AcDbArc
 50
30.0
 51
90.0
  0
LINE
  5
1D5
330
1F
100
AcDbEntity
  8
0
  6
Continuous
 62
     7
370
    25
100
AcDbLine
 10
18.1262263746
 20
13.1931138115
 30
0.0
 11
21.1262261183
 21
13.1931138115
 31
0.0
  0
LINE
  5
1D6
330
1F
100
AcDbEntity
  8
0
  6
Continuous
 62
     7
370
    25
100
AcDbLine
 10
18.1262263746
 20
13.4931134925
 30
0.0
 11
18.1262263746
 21
13.2931135096
 31
0.0
  0
LINE
  5
1D7
330
1F
100
AcDbEntity
  8
0
  6
Continuous
 62
     7
370
    25
100
AcDbLine
 10
18.1262263746
 20
13.4931134925
 30
0.0
 11
17.1262258733
 21
13.4931134925
 31
0.0
  0
LINE
  5
1D8
330
1F
100
AcDbEntity
  8
0
  6
Continuous
 62
     7
370
    25
100
AcDbLine
 10
7.7673943607
 20
7.7822346651
 30
0.0
 11
7.7673943607
 21
7.9972346614
 31
0.0
  0
LINE
  5
1D9
330
1F
100
AcDbEntity
  8
0
  6
Continuous
 62
     7
370
    25
100
AcDbLine
 10
10.7673958644
 20
7.7822346651
 30
0.0
 11
7.7673943607
 21
7.7822346651
 31
0.0
  0
LINE
  5
1DA
330
1F
100
AcDbEntity
  8
0
  6
Continuous
 62
     7
370
    25
100
AcDbLine
 10
10.7673958644
 20
7.4472347084
 30
0.0
 11
10.7673958644
 21
7.7822346651
 31
0.0
  0
ARC
  5
1DB
330
1F
100
AcDbEntity
  8
0
  6
Continuous
 62
     7
370
    25
100
AcDbCircle
 10
10.5673954385
 20
7.4472346686
 30
0.0
 40
0.2000000000000028
100
AcDbArc
 50
270.0
 51
0.0
  0
LINE
  5
1DC
330
1F
100
AcDbEntity
  8
0
  6
Continuous
 62
     7
370
    25
100
AcDbLine
 10
9.1173949787
 20
7.2472347255
 30
0.0
 11
10.5673952948
 21
7.2472347255
 31
0.0
  0
LINE
  5
1DD
330
1F
100
AcDbEntity
  8
0
  6
Continuous
 62
     7
370
    25
100
AcDbLine
 10
9.1173949787
 20
7.0472345959
 30
0.0
 11
9.1173949787
 21
7.2472347255
 31
0.0
  0
LINE
  5
1DE
330
1F
100
AcDbEntity
  8
0
  6
Continuous
 62
     7
370
    25
100
AcDbLine
 10
8.1173956508
 20
7.0472345959
 30
0.0
 11
9.1173949787
 21
7.0472345959
 31
0.0
  0
LINE
  5
1DF
330
1F
100
AcDbEntity
  8
0
  6
Continuous
 62
     7
370
    25
100
AcDbLine
 10
8.1173956508
 20
7.0472345959
 30
0.0
 11
8.1173956508
 21
7.2472347255
 31
0.0
  0
LINE
  5
1E0
330
1F
100
AcDbEntity
  8
0
  6
Continuous
 62
     7
370
    25
100
AcDbLine
 10
7.0173942781
 20
7.2472347255
 30
0.0
 11
8.1173956508
 21
7.2472347255
 31
0.0
  0
ELLIPSE
  5
1E1
330
1F
100
AcDbEntity
  8
0
  6
Continuous
 62
     7
370
    25
100
AcDbEllipse
 10
5.7673954385
 20
7.2472346686
 30
0.0
 11
1.25
 21
1.332267629550188E-14
 31
-4.371503159461554E-15
210
3.497202527569281E-15
220
-3.498710768406309E-15
230
1.0
 40
0.4886781363
 41
0.0
 42
3.141592653589822
  0
LINE
  5
1E2
330
1F
100
AcDbEntity
  8
0
  6
Continuous
 62
     7
370
    25
100
AcDbLine
 10
3.4173957589
 20
7.2472347255
 30
0.0
 11
4.5173947849
 21
7.2472347255
 31
0.0
  0
LINE
  5
1E3
330
1F
100
AcDbEntity
  8
0
  6
Continuous
 62
     7
370
    25
100
AcDbLine
 10
3.4173957589
 20
7.0472345959
 30
0.0
 11
3.4173957589
 21
7.2472347255
 31
0.0
  0
LINE
  5
1E4
330
1F
100
AcDbEntity
  8
0
  6
Continuous
 62
     7
370
    25
100
AcDbLine
 10
3.4173957589
 20
7.0472345959
 30
0.0
 11
2.417396431
 21
7.0472345959
 31
0.0
  0
LINE
  5
1E5
330
1F
100
AcDbEntity
  8
0
  6
Continuous
 62
     7
370
    25
100
AcDbLine
 10
2.417396431
 20
7.0472345959
 30
0.0
 11
2.417396431
 21
7.2472347255
 31
0.0
  0
LINE
  5
1E6
330
1F
100
AcDbEntity
  8
0
  6
Continuous
 62
     7
370
    25
100
AcDbLine
 10
0.9673961148
 20
7.2472347255
 30
0.0
 11
2.417396431
 21
7.2472347255
 31
0.0
  0
ARC
  5
1E7
330
1F
100
AcDbEntity
  8
0
  6
Continuous
 62
     7
370
    25
100
AcDbCircle
 10
0.9673954385
 20
7.4472346686
 30
0.0
 40
0.2000000000000011
100
AcDbArc
 50
180.0
 51
270.0
  0
LINE
  5
1E8
330
1F
100
AcDbEntity
  8
0
  6
Continuous
 62
     7
370
    25
100
AcDbLine
 10
0.7673943719
 20
7.7822346651
 30
0.0
 11
0.7673943719
 21
7.4472347084
 31
0.0
  0
LINE
  5
1E9
330
1F
100
AcDbEntity
  8
0
  6
Continuous
 62
     7
370
    25
100
AcDbLine
 10
0.7673943719
 20
7.7822346651
 30
0.0
 11
3.7673947023
 21
7.7822346651
 31
0.0
  0
LINE
  5
1EA
330
1F
100
AcDbEntity
  8
0
  6
Continuous
 62
     7
370
    25
100
AcDbLine
 10
3.7673947023
 20
7.7822346651
 30
0.0
 11
3.7673947023
 21
7.9972346614
 31
0.0
  0
LINE
  5
1EB
330
1F
100
AcDbEntity
  8
0
  6
Continuous
 62
     7
370
    25
100
AcDbLine
 10
3.7673947023
 20
7.9972346614
 30
0.0
 11
0.7673943719
 21
7.9972346614
 31
0.0
  0
ARC
  5
1EC
330
1F
100
AcDbEntity
  8
0
  6
Continuous
 62
     7
370
    25
100
AcDbCircle
 10
0.9406005193
 20
7.8972346686
 30
0.0
 40
0.1999999999999993
100
AcDbArc
 50
90.0
 51
150.0
  0
LINE
  5
1ED
330
1F
100
AcDbEntity
  8
0
  6
Continuous
 62
     7
370
    25
100
AcDbLine
 10
3.7673947023
 20
8.0972346529
 30
0.0
 11
0.9405998377
 21
8.0972346529
 31
0.0
  0
LINE
  5
1EE
330
1F
100
AcDbEntity
  8
0
  6
Continuous
 62
     7
370
    25
100
AcDbLine
 10
3.7673947023
 20
8.2972346358
 30
0.0
 11
3.7673947023
 21
8.0972346529
 31
0.0
  0
LINE
  5
1EF
330
1F
100
AcDbEntity
  8
0
  6
Continuous
 62
     7
370
    25
100
AcDbLine
 10
3.7673947023
 20
8.2972346358
 30
0.0
 11
4.7673963769
 21
8.2972346358
 31
0.0
  0
LINE
  5
1F0
330
1F
100
AcDbEntity
  8
0
  6
Continuous
 62
     7
370
    25
100
AcDbLine
 10
4.7673963769
 20
8.2972346358
 30
0.0
 11
4.7673963769
 21
8.0972346529
 31
0.0
  0
LINE
  5
1F1
330
1F
100
AcDbEntity
  8
0
  6
Continuous
 62
     7
370
    25
100
AcDbLine
 10
6.7673950328
 20
8.0972346529
 30
0.0
 11
4.7673963769
 21
8.0972346529
 31
0.0
  0
LINE
  5
1F2
330
1F
100
AcDbEntity
  8
0
  6
Continuous
 62
     7
370
    25
100
AcDbLine
 10
6.7673950328
 20
8.2972346358
 30
0.0
 11
6.7673950328
 21
8.0972346529
 31
0.0
  0
LINE
  5
1F3
330
1F
100
AcDbEntity
  8
0
  6
Continuous
 62
     7
370
    25
100
AcDbLine
 10
7.7673943607
 20
8.2972346358
 30
0.0
 11
6.7673950328
 21
8.2972346358
 31
0.0
  0
LINE
  5
1F4
330
1F
100
AcDbEntity
  8
0
  6
Continuous
 62
     7
370
    25
100
AcDbLine
 10
7.7673943607
 20
8.2972346358
 30
0.0
 11
7.7673943607
 21
8.0972346529
 31
0.0
  0
LINE
  5
1F5
330
1F
100
AcDbEntity
  8
0
  6
Continuous
 62
     7
370
    25
100
AcDbLine
 10
10.5941903986
 20
8.0972346529
 30
0.0
 11
7.7673943607
 21
8.0972346529
 31
0.0
  0
ARC
  5
1F6
330
1F
100
AcDbEntity
  8
0
  6
Continuous
 62
     7
370
    25
100
AcDbCircle
 10
10.5941903578
 20
7.8972346686
 30
0.0
 40
0.2000000000000011
100
AcDbArc
 50
30.0
 51
90.0
  0
LINE
  5
1F7
330
1F
100
AcDbEntity
  8
0
  6
Continuous
 62
     7
370
    25
100
AcDbLine
 10
7.7673943607
 20
7.9972346614
 30
0.0
 11
10.7673958644
 21
7.9972346614
 31
0.0
  0
LINE
  5
1F8
330
1F
100
AcDbEntity
  8
0
  6
Continuous
 62
     7
370
    25
100
AcDbLine
 10
3.7540329367
 20
5.4466282362
 30
0.0
 11
2.1040332243
 21
5.4466282362
 31
0.0
  0
LINE
  5
1F9
330
1F
100
AcDbEntity
  8
0
  6
Continuous
 62
     7
370
    25
100
AcDbLine
 10
3.7540329367
 20
6.6466282437
 30
0.0
 11
3.7540329367
 21
5.4466282362
 31
0.0
  0
LINE
  5
1FA
330
1F
100
AcDbEntity
  8
0
  6
Continuous
 62
     7
370
    25
100
AcDbLine
 10
3.7540329367
 20
6.6466282437
 30
0.0
 11
3.9290335817
 21
6.6466282437
 31
0.0
  0
LINE
  5
1FB
330
1F
100
AcDbEntity
  8
0
  6
Continuous
 62
     7
370
    25
100
AcDbLine
 10
3.9290335817
 20
6.8466282266
 30
0.0
 11
3.9290335817
 21
6.6466282437
 31
0.0
  0
LINE
  5
1FC
330
1F
100
AcDbEntity
  8
0
  6
Continuous
 62
     7
370
    25
100
AcDbLine
 10
3.9290335817
 20
6.8466282266
 30
0.0
 11
4.6790336643
 21
6.8466282266
 31
0.0
  0
LINE
  5
1FD
330
1F
100
AcDbEntity
  8
0
  6
Continuous
 62
     7
370
    25
100
AcDbLine
 10
4.6790336643
 20
6.8466282266
 30
0.0
 11
4.6790336643
 21
6.6466282437
 31
0.0
  0
LINE
  5
1FE
330
1F
100
AcDbEntity
  8
0
  6
Continuous
 62
     7
370
    25
100
AcDbLine
 10
4.6790336643
 20
6.6466282437
 30
0.0
 11
4.8790330606
 21
6.6466282437
 31
0.0
  0
LINE
  5
1FF
330
1F
100
AcDbEntity
  8
0
  6
Continuous
 62
     7
370
    25
100
AcDbLine
 10
4.8790330606
 20
5.6466282283
 30
0.0
 11
4.8790330606
 21
6.6466282437
 31
0.0
  0
ARC
  5
200
330
1F
100
AcDbEntity
  8
0
  6
Continuous
 62
     7
370
    25
100
AcDbCircle
 10
5.5790338316
 20
5.6466282264
 30
0.0
 40
0.7000000000000011
100
AcDbArc
 50
180.0
 51
0.0
  0
LINE
  5
201
330
1F
100
AcDbEntity
  8
0
  6
Continuous
 62
     7
370
    25
100
AcDbLine
 10
6.2790335277
 20
6.6466282437
 30
0.0
 11
6.2790335277
 21
5.6466282283
 31
0.0
  0
LINE
  5
202
330
1F
100
AcDbEntity
  8
0
  6
Continuous
 62
     7
370
    25
100
AcDbLine
 10
6.2790335277
 20
6.6466282437
 30
0.0
 11
7.9290332401
 21
6.6466282437
 31
0.0
  0
LINE
  5
203
330
1F
100
AcDbEntity
  8
0
  6
Continuous
 62
     7
370
    25
100
AcDbLine
 10
7.9290332401
 20
6.8466282266
 30
0.0
 11
7.9290332401
 21
6.6466282437
 31
0.0
  0
LINE
  5
204
330
1F
100
AcDbEntity
  8
0
  6
Continuous
 62
     7
370
    25
100
AcDbLine
 10
7.9290332401
 20
6.8466282266
 30
0.0
 11
8.9290349146
 21
6.8466282266
 31
0.0
  0
LINE
  5
205
330
1F
100
AcDbEntity
  8
0
  6
Continuous
 62
     7
370
    25
100
AcDbLine
 10
8.9290349146
 20
6.8466282266
 30
0.0
 11
8.9290349146
 21
6.6466282437
 31
0.0
  0
LINE
  5
206
330
1F
100
AcDbEntity
  8
0
  6
Continuous
 62
     7
370
    25
100
AcDbLine
 10
8.9290349146
 20
6.6466282437
 30
0.0
 11
9.9790340916
 21
6.6466282437
 31
0.0
  0
LINE
  5
207
330
1F
100
AcDbEntity
  8
0
  6
Continuous
 62
     7
370
    25
100
AcDbLine
 10
9.9790340916
 20
6.6466282437
 30
0.0
 11
9.9790340916
 21
5.8966282253
 31
0.0
  0
LINE
  5
208
330
1F
100
AcDbEntity
  8
0
  6
Continuous
 62
     7
370
    25
100
AcDbLine
 10
9.9790340916
 20
5.8966282253
 30
0.0
 11
10.1790334879
 21
5.8966282253
 31
0.0
  0
LINE
  5
209
330
1F
100
AcDbEntity
  8
0
  6
Continuous
 62
     7
370
    25
100
AcDbLine
 10
10.1790334879
 20
5.8966282253
 30
0.0
 11
10.1790334879
 21
6.6466282437
 31
0.0
  0
LINE
  5
20A
330
1F
100
AcDbEntity
  8
0
  6
Continuous
 62
     7
370
    25
100
AcDbLine
 10
10.1790334879
 20
6.6466282437
 30
0.0
 11
10.5790334537
 21
6.6466282437
 31
0.0
  0
LINE
  5
20B
330
1F
100
AcDbEntity
  8
0
  6
Continuous
 62
     7
370
    25
100
AcDbLine
 10
10.5790334537
 20
6.6466282437
 30
0.0
 11
10.5790334537
 21
5.8466282296
 31
0.0
  0
ARC
  5
20C
330
1F
100
AcDbEntity
  8
0
  6
Continuous
 62
     7
370
    25
100
AcDbCircle
 10
9.5790338316
 20
5.8466282264
 30
0.0
 40
1.0
100
AcDbArc
 50
270.0
 51
0.0
  0
LINE
  5
20D
330
1F
100
AcDbEntity
  8
0
  6
Continuous
 62
     7
370
    25
100
AcDbLine
 10
9.5790341258
 20
4.8466282508
 30
0.0
 11
1.5790336358
 21
4.8466282508
 31
0.0
  0
ARC
  5
20E
330
1F
100
AcDbEntity
  8
0
  6
Continuous
 62
     7
370
    25
100
AcDbCircle
 10
1.5790338316
 20
5.8466282264
 30
0.0
 40
1.0
100
AcDbArc
 50
180.0
 51
270.0
  0
LINE
  5
20F
330
1F
100
AcDbEntity
  8
0
  6
Continuous
 62
     7
370
    25
100
AcDbLine
 10
0.9790331004
 20
5.8966282253
 30
0.0
 11
0.9790331004
 21
6.6466282437
 31
0.0
  0
LINE
  5
210
330
1F
100
AcDbEntity
  8
0
  6
Continuous
 62
     7
370
    25
100
AcDbLine
 10
1.1790348433
 20
5.8966282253
 30
0.0
 11
0.9790331004
 21
5.8966282253
 31
0.0
  0
LINE
  5
211
330
1F
100
AcDbEntity
  8
0
  6
Continuous
 62
     7
370
    25
100
AcDbLine
 10
1.1790348433
 20
6.8466282266
 30
0.0
 11
1.1790348433
 21
5.8966282253
 31
0.0
  0
LINE
  5
212
330
1F
100
AcDbEntity
  8
0
  6
Continuous
 62
     7
370
    25
100
AcDbLine
 10
1.1790348433
 20
6.8466282266
 30
0.0
 11
1.9290349259
 21
6.8466282266
 31
0.0
  0
LINE
  5
213
330
1F
100
AcDbEntity
  8
0
  6
Continuous
 62
     7
370
    25
100
AcDbLine
 10
1.9290349259
 20
6.8466282266
 30
0.0
 11
1.9290349259
 21
6.6466282437
 31
0.0
  0
LINE
  5
214
330
1F
100
AcDbEntity
  8
0
  6
Continuous
 62
     7
370
    25
100
AcDbLine
 10
1.9290349259
 20
6.6466282437
 30
0.0
 11
2.1040332243
 21
6.6466282437
 31
0.0
  0
LINE
  5
215
330
1F
100
AcDbEntity
  8
0
  6
Continuous
 62
     7
370
    25
100
AcDbLine
 10
2.1040332243
 20
5.4466282362
 30
0.0
 11
2.1040332243
 21
6.6466282437
 31
0.0
  0
LINE
  5
216
330
1F
100
AcDbEntity
  8
0
  6
Continuous
 62
     7
370
    25
100
AcDbLine
 10
0.5790343079
 20
6.6466282437
 30
0.0
 11
0.9790331004
 21
6.6466282437
 31
0.0
  0
LINE
  5
217
330
1F
100
AcDbEntity
  8
0
  6
Continuous
 62
     7
370
    25
100
AcDbLine
 10
0.5790343079
 20
5.8466282296
 30
0.0
 11
0.5790343079
 21
6.6466282437
 31
0.0
  0
LINE
  5
218
330
1F
100
AcDbEntity
  8
0
  6
Continuous
 62
     7
370
    25
100
AcDbLine
 10
19.7271408407
 20
8.3480945282
 30
0.0
 11
19.7271408407
 21
8.1480943987
 31
0.0
  0
LINE
  5
219
330
1F
100
AcDbEntity
  8
0
  6
Continuous
 62
     7
370
    25
100
AcDbLine
 10
19.7271408407
 20
8.3480945282
 30
0.0
 11
20.4771409233
 21
8.3480945282
 31
0.0
  0
LINE
  5
21A
330
1F
100
AcDbEntity
  8
0
  6
Continuous
 62
     7
370
    25
100
AcDbLine
 10
20.6771409062
 20
7.3980943161
 30
0.0
 11
20.4771409233
 21
7.3980943161
 31
0.0
  0
LINE
  5
21B
330
1F
100
AcDbEntity
  8
0
  6
Continuous
 62
     7
370
    25
100
AcDbLine
 10
21.077140872
 20
8.1480943987
 30
0.0
 11
20.6771409062
 21
8.1480943987
 31
0.0
  0
ARC
  5
21C
330
1F
100
AcDbEntity
  8
0
  6
Continuous
 62
     7
370
    25
100
AcDbCircle
 10
20.0771409936
 20
7.3480943863
 30
0.0
 40
1.0
100
AcDbArc
 50
270.0
 51
0.0
  0
LINE
  5
21D
330
1F
100
AcDbEntity
  8
0
  6
Continuous
 62
     7
370
    25
100
AcDbLine
 10
12.0771410541
 20
6.3480943691
 30
0.0
 11
20.0771409574
 21
6.3480943691
 31
0.0
  0
ARC
  5
21E
330
1F
100
AcDbEntity
  8
0
  6
Continuous
 62
     7
370
    25
100
AcDbCircle
 10
12.0771409936
 20
7.3480943863
 30
0.0
 40
1.0
100
AcDbArc
 50
180.0
 51
270.0
  0
LINE
  5
21F
330
1F
100
AcDbEntity
  8
0
  6
Continuous
 62
     7
370
    25
100
AcDbLine
 10
11.0771405529
 20
8.1480943987
 30
0.0
 11
11.0771405529
 21
7.3480943203
 31
0.0
  0
LINE
  5
220
330
1F
100
AcDbEntity
  8
0
  6
Continuous
 62
     7
370
    25
100
AcDbLine
 10
11.4771405187
 20
8.1480943987
 30
0.0
 11
11.4771405187
 21
7.3980943161
 31
0.0
  0
LINE
  5
221
330
1F
100
AcDbEntity
  8
0
  6
Continuous
 62
     7
370
    25
100
AcDbLine
 10
11.4771405187
 20
7.3980943161
 30
0.0
 11
11.6771410883
 21
7.3980943161
 31
0.0
  0
LINE
  5
222
330
1F
100
AcDbEntity
  8
0
  6
Continuous
 62
     7
370
    25
100
AcDbLine
 10
12.7271414386
 20
8.1480943987
 30
0.0
 11
11.6771410883
 21
8.1480943987
 31
0.0
  0
LINE
  5
223
330
1F
100
AcDbEntity
  8
0
  6
Continuous
 62
     7
370
    25
100
AcDbLine
 10
15.3771404789
 20
8.1480943987
 30
0.0
 11
13.7271407665
 21
8.1480943987
 31
0.0
  0
ARC
  5
224
330
1F
100
AcDbEntity
  8
0
  6
Continuous
 62
     7
370
    25
100
AcDbCircle
 10
16.0771409936
 20
7.1480943863
 30
0.0
 40
0.6999999999999993
100
AcDbArc
 50
180.0
 51
0.0
  0
LINE
  5
225
330
1F
100
AcDbEntity
  8
0
  6
Continuous
 62
     7
370
    25
100
AcDbLine
 10
16.9771415156
 20
8.3480945282
 30
0.0
 11
16.9771415156
 21
8.1480943987
 31
0.0
  0
LINE
  5
226
330
1F
100
AcDbEntity
  8
0
  6
Continuous
 62
     7
370
    25
100
AcDbLine
 10
17.9021410699
 20
8.1480943987
 30
0.0
 11
17.7271404248
 21
8.1480943987
 31
0.0
  0
LINE
  5
227
330
1F
100
AcDbEntity
  8
0
  6
Continuous
 62
     7
370
    25
100
AcDbLine
 10
17.9021410699
 20
6.9480943545
 30
0.0
 11
19.5521407823
 21
6.9480943545
 31
0.0
  0
LINE
  5
228
330
1F
100
AcDbEntity
  8
0
  6
Continuous
 62
     7
370
    25
100
AcDbLine
 10
17.9021410699
 20
8.1480943987
 30
0.0
 11
17.9021410699
 21
6.9480943545
 31
0.0
  0
LINE
  5
229
330
1F
100
AcDbEntity
  8
0
  6
Continuous
 62
     7
370
    25
100
AcDbLine
 10
11.6771410883
 20
7.3980943161
 30
0.0
 11
11.6771410883
 21
8.1480943987
 31
0.0
  0
LINE
  5
22A
330
1F
100
AcDbEntity
  8
0
  6
Continuous
 62
     7
370
    25
100
AcDbLine
 10
12.7271414386
 20
8.3480945282
 30
0.0
 11
13.7271407665
 21
8.3480945282
 31
0.0
  0
LINE
  5
22B
330
1F
100
AcDbEntity
  8
0
  6
Continuous
 62
     7
370
    25
100
AcDbLine
 10
19.7271408407
 20
8.1480943987
 30
0.0
 11
19.5521407823
 21
8.1480943987
 31
0.0
  0
LINE
  5
22C
330
1F
100
AcDbEntity
  8
0
  6
Continuous
 62
     7
370
    25
100
AcDbLine
 10
16.9771415156
 20
8.1480943987
 30
0.0
 11
16.777140946
 21
8.1480943987
 31
0.0
  0
LINE
  5
22D
330
1F
100
AcDbEntity
  8
0
  6
Continuous
 62
     7
370
    25
100
AcDbLine
 10
17.7271404248
 20
8.3480945282
 30
0.0
 11
17.7271404248
 21
8.1480943987
 31
0.0
  0
LINE
  5
22E
330
1F
100
AcDbEntity
  8
0
  6
Continuous
 62
     7
370
    25
100
AcDbLine
 10
12.7271414386
 20
8.3480945282
 30
0.0
 11
12.7271414386
 21
8.1480943987
 31
0.0
  0
LINE
  5
22F
330
1F
100
AcDbEntity
  8
0
  6
Continuous
 62
     7
370
    25
100
AcDbLine
 10
20.4771409233
 20
7.3980943161
 30
0.0
 11
20.4771409233
 21
8.3480945282
 31
0.0
  0
LINE
  5
230
330
1F
100
AcDbEntity
  8
0
  6
Continuous
 62
     7
370
    25
100
AcDbLine
 10
20.6771409062
 20
8.1480943987
 30
0.0
 11
20.6771409062
 21
7.3980943161
 31
0.0
  0
LINE
  5
231
330
1F
100
AcDbEntity
  8
0
  6
Continuous
 62
     7
370
    25
100
AcDbLine
 10
19.5521407823
 20
6.9480943545
 30
0.0
 11
19.5521407823
 21
8.1480943987
 31
0.0
  0
LINE
  5
232
330
1F
100
AcDbEntity
  8
0
  6
Continuous
 62
     7
370
    25
100
AcDbLine
 10
16.777140946
 20
7.1480943374
 30
0.0
 11
16.777140946
 21
8.1480943987
 31
0.0
  0
LINE
  5
233
330
1F
100
AcDbEntity
  8
0
  6
Continuous
 62
     7
370
    25
100
AcDbLine
 10
15.3771404789
 20
8.1480943987
 30
0.0
 11
15.3771404789
 21
7.1480943374
 31
0.0
  0
LINE
  5
234
330
1F
100
AcDbEntity
  8
0
  6
Continuous
 62
     7
370
    25
100
AcDbLine
 10
16.9771415156
 20
8.3480945282
 30
0.0
 11
17.7271404248
 21
8.3480945282
 31
0.0
  0
LINE
  5
235
330
1F
100
AcDbEntity
  8
0
  6
Continuous
 62
     7
370
    25
100
AcDbLine
 10
13.7271407665
 20
8.3480945282
 30
0.0
 11
13.7271407665
 21
8.1480943987
 31
0.0
  0
LINE
  5
236
330
1F
100
AcDbEntity
  8
0
  6
Continuous
 62
     7
370
    25
100
AcDbLine
 10
11.4771405187
 20
8.1480943987
 30
0.0
 11
11.0771405529
 21
8.1480943987
 31
0.0
  0
LINE
  5
237
330
1F
100
AcDbEntity
  8
0
  6
Continuous
 62
     7
370
    25
100
AcDbLine
 10
21.077140872
 20
7.3480943203
 30
0.0
 11
21.077140872
 21
8.1480943987
 31
0.0
  0
LINE
  5
238
330
1F
100
AcDbEntity
  8
0
  6
Continuous
 62
     7
370
    25
100
AcDbLine
 10
3.9296812543
 20
21.2265621284
 30
0.0
 11
1.9296802518
 21
21.2265621284
 31
0.0
  0
LINE
  5
239
330
1F
100
AcDbEntity
  8
0
  6
Continuous
 62
     7
370
    25
100
AcDbLine
 10
3.9296812543
 20
22.2265626297
 30
0.0
 11
3.9296812543
 21
21.2265621284
 31
0.0
  0
LINE
  5
23A
330
1F
100
AcDbEntity
  8
0
  6
Continuous
 62
     7
370
    25
100
AcDbLine
 10
1.9296802518
 20
22.2265626297
 30
0.0
 11
3.9296812543
 21
22.2265626297
 31
0.0
  0
LINE
  5
23B
330
1F
100
AcDbEntity
  8
0
  6
Continuous
 62
     7
370
    25
100
AcDbLine
 10
1.9296802518
 20
21.2265621284
 30
0.0
 11
1.9296802518
 21
22.2265626297
 31
0.0
  0
LINE
  5
23C
330
1F
100
AcDbEntity
  8
0
  6
Continuous
 62
     7
370
    25
100
AcDbLine
 10
6.4296807474
 20
22.2265626297
 30
0.0
 11
6.4296807474
 21
21.2265621284
 31
0.0
  0
LINE
  5
23D
330
1F
100
AcDbEntity
  8
0
  6
Continuous
 62
     7
370
    25
100
AcDbLine
 10
6.4296807474
 20
21.2265621284
 30
0.0
 11
8.4296817499
 21
21.2265621284
 31
0.0
  0
LINE
  5
23E
330
1F
100
AcDbEntity
  8
0
  6
Continuous
 62
     7
370
    25
100
AcDbLine
 10
8.4296817499
 20
21.2265621284
 30
0.0
 11
8.4296817499
 21
22.2265626297
 31
0.0
  0
LINE
  5
23F
330
1F
100
AcDbEntity
  8
0
  6
Continuous
 62
     7
370
    25
100
AcDbLine
 10
8.4296817499
 20
22.2265626297
 30
0.0
 11
6.4296807474
 21
22.2265626297
 31
0.0
  0
LINE
  5
240
330
1F
100
AcDbEntity
  8
0
  6
Continuous
 62
     7
370
    25
100
AcDbLine
 10
3.9296812543
 20
22.5265628974
 30
0.0
 11
3.9296812543
 21
23.7265627949
 31
0.0
  0
LINE
  5
241
330
1F
100
AcDbEntity
  8
0
  6
Continuous
 62
     7
370
    25
100
AcDbLine
 10
6.4296807474
 20
22.5265628974
 30
0.0
 11
3.9296812543
 21
22.5265628974
 31
0.0
  0
LINE
  5
242
330
1F
100
AcDbEntity
  8
0
  6
Continuous
 62
     7
370
    25
100
AcDbLine
 10
6.4296807474
 20
23.7265627949
 30
0.0
 11
6.4296807474
 21
22.5265628974
 31
0.0
  0
LINE
  5
243
330
1F
100
AcDbEntity
  8
0
  6
Continuous
 62
     7
370
    25
100
AcDbLine
 10
10.1796811604
 20
14.7265623903
 30
0.0
 11
10.1796811604
 21
22.7265622936
 31
0.0
  0
ARC
  5
244
330
1F
100
AcDbEntity
  8
0
  6
Continuous
 62
     7
370
    25
100
AcDbCircle
 10
9.179680838
 20
14.7265624988
 30
0.0
 40
1.000000000000002
100
AcDbArc
 50
270.0
 51
0.0
  0
LINE
  5
245
330
1F
100
AcDbEntity
  8
0
  6
Continuous
 62
     7
370
    25
100
AcDbLine
 10
6.4296807474
 20
13.7265624757
 30
0.0
 11
9.1796806592
 21
13.7265624757
 31
0.0
  0
LINE
  5
246
330
1F
100
AcDbEntity
  8
0
  6
Continuous
 62
     7
370
    25
100
AcDbLine
 10
6.4296807474
 20
13.7265624757
 30
0.0
 11
6.4296807474
 21
14.9265623732
 31
0.0
  0
LINE
  5
247
330
1F
100
AcDbEntity
  8
0
  6
Continuous
 62
     7
370
    25
100
AcDbLine
 10
6.4296807474
 20
14.9265623732
 30
0.0
 11
3.9296812543
 21
14.9265623732
 31
0.0
  0
LINE
  5
248
330
1F
100
AcDbEntity
  8
0
  6
Continuous
 62
     7
370
    25
100
AcDbLine
 10
3.9296812543
 20
14.9265623732
 30
0.0
 11
3.9296812543
 21
13.7265624757
 31
0.0
  0
LINE
  5
249
330
1F
100
AcDbEntity
  8
0
  6
Continuous
 62
     7
370
    25
100
AcDbLine
 10
1.1796801692
 20
13.7265624757
 30
0.0
 11
3.9296812543
 21
13.7265624757
 31
0.0
  0
ARC
  5
24A
330
1F
100
AcDbEntity
  8
0
  6
Continuous
 62
     7
370
    25
100
AcDbCircle
 10
1.179680838
 20
14.7265624988
 30
0.0
 40
1.000000000000002
100
AcDbArc
 50
180.0
 51
270.0
  0
LINE
  5
24B
330
1F
100
AcDbEntity
  8
0
  6
Continuous
 62
     7
370
    25
100
AcDbLine
 10
0.1796808413
 20
22.7265622936
 30
0.0
 11
0.1796808413
 21
14.7265623903
 31
0.0
  0
LINE
  5
24C
330
1F
100
AcDbEntity
  8
0
  6
Continuous
 62
     7
370
    25
100
AcDbLine
 10
3.9296812543
 20
23.7265627949
 30
0.0
 11
1.1796801692
 21
23.7265627949
 31
0.0
  0
CIRCLE
  5
24D
330
1F
100
AcDbEntity
  8
0
  6
Continuous
 62
     7
370
    25
100
AcDbCircle
 10
4.5891296569
 20
21.2541215539
 30
0.0
 40
0.0688976377952741
  0
CIRCLE
  5
24E
330
1F
100
AcDbEntity
  8
0
  6
Continuous
 62
     7
370
    25
100
AcDbCircle
 10
5.7702320191
 20
22.1990034437
 30
0.0
 40
0.0688976377952741
  0
CIRCLE
  5
24F
330
1F
100
AcDbEntity
  8
0
  6
Continuous
 62
     7
370
    25
100
AcDbCircle
 10
4.5891296569
 20
22.1990034437
 30
0.0
 40
0.0688976377952741
  0
CIRCLE
  5
250
330
1F
100
AcDbEntity
  8
0
  6
Continuous
 62
     7
370
    25
100
AcDbCircle
 10
5.7702320191
 20
21.2541215539
 30
0.0
 40
0.0688976377952777
  0
CIRCLE
  5
251
330
1F
100
AcDbEntity
  8
0
  6
Continuous
 62
     7
370
    25
100
AcDbCircle
 10
4.5891296569
 20
16.1990034437
 30
0.0
 40
0.0688976377952741
  0
CIRCLE
  5
252
330
1F
100
AcDbEntity
  8
0
  6
Continuous
 62
     7
370
    25
100
AcDbCircle
 10
5.7702320191
 20
15.2541215539
 30
0.0
 40
0.0688976377952759
  0
CIRCLE
  5
253
330
1F
100
AcDbEntity
  8
0
  6
Continuous
 62
     7
370
    25
100
AcDbCircle
 10
4.5891296569
 20
15.2541215539
 30
0.0
 40
0.0688976377952759
  0
CIRCLE
  5
254
330
1F
100
AcDbEntity
  8
0
  6
Continuous
 62
     7
370
    25
100
AcDbCircle
 10
5.7702320191
 20
16.1990034437
 30
0.0
 40
0.0688976377952741
  0
LINE
  5
255
330
1F
100
AcDbEntity
  8
0
  6
Continuous
 62
     7
370
    25
100
AcDbLine
 10
1.5796813083
 20
20.5265630682
 30
0.0
 11
1.5796813083
 21
20.7265624645
 31
0.0
  0
LINE
  5
256
330
1F
100
AcDbEntity
  8
0
  6
Continuous
 62
     7
370
    25
100
AcDbLine
 10
1.5796813083
 20
20.7265624645
 30
0.0
 11
0.8296812257
 21
20.7265624645
 31
0.0
  0
LINE
  5
257
330
1F
100
AcDbEntity
  8
0
  6
Continuous
 62
     7
370
    25
100
AcDbLine
 10
0.8296812257
 20
20.7265624645
 30
0.0
 11
0.8296812257
 21
20.5265630682
 31
0.0
  0
LINE
  5
258
330
1F
100
AcDbEntity
  8
0
  6
Continuous
 62
     7
370
    25
100
AcDbLine
 10
0.8296812257
 20
20.5265630682
 30
0.0
 11
1.5796813083
 21
20.5265630682
 31
0.0
  0
LINE
  5
259
330
1F
100
AcDbEntity
  8
0
  6
Continuous
 62
     7
370
    25
100
AcDbLine
 10
7.5296797734
 20
16.9265622024
 30
0.0
 11
7.5296797734
 21
16.7265628061
 31
0.0
  0
LINE
  5
25A
330
1F
100
AcDbEntity
  8
0
  6
Continuous
 62
     7
370
    25
100
AcDbLine
 10
7.5296797734
 20
16.7265628061
 30
0.0
 11
8.529681448
 21
16.7265628061
 31
0.0
  0
LINE
  5
25B
330
1F
100
AcDbEntity
  8
0
  6
Continuous
 62
     7
370
    25
100
AcDbLine
 10
8.529681448
 20
16.7265628061
 30
0.0
 11
8.529681448
 21
16.9265622024
 31
0.0
  0
LINE
  5
25C
330
1F
100
AcDbEntity
  8
0
  6
Continuous
 62
     7
370
    25
100
AcDbLine
 10
8.529681448
 20
16.9265622024
 30
0.0
 11
7.5296797734
 21
16.9265622024
 31
0.0
  0
LINE
  5
25D
330
1F
100
AcDbEntity
  8
0
  6
Continuous
 62
     7
370
    25
100
AcDbLine
 10
8.529681448
 20
20.5265630682
 30
0.0
 11
8.529681448
 21
20.7265624645
 31
0.0
  0
LINE
  5
25E
330
1F
100
AcDbEntity
  8
0
  6
Continuous
 62
     7
370
    25
100
AcDbLine
 10
8.529681448
 20
20.7265624645
 30
0.0
 11
7.5296797734
 21
20.7265624645
 31
0.0
  0
LINE
  5
25F
330
1F
100
AcDbEntity
  8
0
  6
Continuous
 62
     7
370
    25
100
AcDbLine
 10
7.5296797734
 20
20.7265624645
 30
0.0
 11
7.5296797734
 21
20.5265630682
 31
0.0
  0
LINE
  5
260
330
1F
100
AcDbEntity
  8
0
  6
Continuous
 62
     7
370
    25
100
AcDbLine
 10
7.5296797734
 20
20.5265630682
 30
0.0
 11
8.529681448
 21
20.5265630682
 31
0.0
  0
LINE
  5
261
330
1F
100
AcDbEntity
  8
0
  6
Continuous
 62
     7
370
    25
100
AcDbLine
 10
4.2796801977
 20
16.7265628061
 30
0.0
 11
4.2796801977
 21
16.9265622024
 31
0.0
  0
LINE
  5
262
330
1F
100
AcDbEntity
  8
0
  6
Continuous
 62
     7
370
    25
100
AcDbLine
 10
4.2796801977
 20
16.9265622024
 30
0.0
 11
3.5296801151
 21
16.9265622024
 31
0.0
  0
LINE
  5
263
330
1F
100
AcDbEntity
  8
0
  6
Continuous
 62
     7
370
    25
100
AcDbLine
 10
3.5296801151
 20
16.9265622024
 30
0.0
 11
3.5296801151
 21
16.7265628061
 31
0.0
  0
LINE
  5
264
330
1F
100
AcDbEntity
  8
0
  6
Continuous
 62
     7
370
    25
100
AcDbLine
 10
3.5296801151
 20
16.7265628061
 30
0.0
 11
4.2796801977
 21
16.7265628061
 31
0.0
  0
LINE
  5
265
330
1F
100
AcDbEntity
  8
0
  6
Continuous
 62
     7
370
    25
100
AcDbLine
 10
4.2796801977
 20
20.5265630682
 30
0.0
 11
4.2796801977
 21
20.7265624645
 31
0.0
  0
LINE
  5
266
330
1F
100
AcDbEntity
  8
0
  6
Continuous
 62
     7
370
    25
100
AcDbLine
 10
4.2796801977
 20
20.7265624645
 30
0.0
 11
3.5296801151
 21
20.7265624645
 31
0.0
  0
LINE
  5
267
330
1F
100
AcDbEntity
  8
0
  6
Continuous
 62
     7
370
    25
100
AcDbLine
 10
3.5296801151
 20
20.7265624645
 30
0.0
 11
3.5296801151
 21
20.5265630682
 31
0.0
  0
LINE
  5
268
330
1F
100
AcDbEntity
  8
0
  6
Continuous
 62
     7
370
    25
100
AcDbLine
 10
3.5296801151
 20
20.5265630682
 30
0.0
 11
4.2796801977
 21
20.5265630682
 31
0.0
  0
LINE
  5
269
330
1F
100
AcDbEntity
  8
0
  6
Continuous
 62
     7
370
    25
100
AcDbLine
 10
7.5296797734
 20
14.3265624245
 30
0.0
 11
7.5296797734
 21
14.1265624416
 31
0.0
  0
LINE
  5
26A
330
1F
100
AcDbEntity
  8
0
  6
Continuous
 62
     7
370
    25
100
AcDbLine
 10
7.5296797734
 20
14.1265624416
 30
0.0
 11
8.529681448
 21
14.1265624416
 31
0.0
  0
LINE
  5
26B
330
1F
100
AcDbEntity
  8
0
  6
Continuous
 62
     7
370
    25
100
AcDbLine
 10
8.529681448
 20
14.1265624416
 30
0.0
 11
8.529681448
 21
14.3265624245
 31
0.0
  0
LINE
  5
26C
330
1F
100
AcDbEntity
  8
0
  6
Continuous
 62
     7
370
    25
100
AcDbLine
 10
8.529681448
 20
14.3265624245
 30
0.0
 11
7.5296797734
 21
14.3265624245
 31
0.0
  0
LINE
  5
26D
330
1F
100
AcDbEntity
  8
0
  6
Continuous
 62
     7
370
    25
100
AcDbLine
 10
7.5296797734
 20
23.326562829
 30
0.0
 11
7.5296797734
 21
23.1265622595
 31
0.0
  0
LINE
  5
26E
330
1F
100
AcDbEntity
  8
0
  6
Continuous
 62
     7
370
    25
100
AcDbLine
 10
7.5296797734
 20
23.1265622595
 30
0.0
 11
8.529681448
 21
23.1265622595
 31
0.0
  0
LINE
  5
26F
330
1F
100
AcDbEntity
  8
0
  6
Continuous
 62
     7
370
    25
100
AcDbLine
 10
8.529681448
 20
23.1265622595
 30
0.0
 11
8.529681448
 21
23.326562829
 31
0.0
  0
LINE
  5
270
330
1F
100
AcDbEntity
  8
0
  6
Continuous
 62
     7
370
    25
100
AcDbLine
 10
8.529681448
 20
23.326562829
 30
0.0
 11
7.5296797734
 21
23.326562829
 31
0.0
  0
LINE
  5
271
330
1F
100
AcDbEntity
  8
0
  6
Continuous
 62
     7
370
    25
100
AcDbLine
 10
2.8296798816
 20
23.1265622595
 30
0.0
 11
2.8296798816
 21
23.326562829
 31
0.0
  0
LINE
  5
272
330
1F
100
AcDbEntity
  8
0
  6
Continuous
 62
     7
370
    25
100
AcDbLine
 10
2.8296798816
 20
23.326562829
 30
0.0
 11
1.8296805537
 21
23.326562829
 31
0.0
  0
LINE
  5
273
330
1F
100
AcDbEntity
  8
0
  6
Continuous
 62
     7
370
    25
100
AcDbLine
 10
1.8296805537
 20
23.326562829
 30
0.0
 11
1.8296805537
 21
23.1265622595
 31
0.0
  0
LINE
  5
274
330
1F
100
AcDbEntity
  8
0
  6
Continuous
 62
     7
370
    25
100
AcDbLine
 10
1.8296805537
 20
23.1265622595
 30
0.0
 11
2.8296798816
 21
23.1265622595
 31
0.0
  0
LINE
  5
275
330
1F
100
AcDbEntity
  8
0
  6
Continuous
 62
     7
370
    25
100
AcDbLine
 10
1.579448991
 20
16.7265628061
 30
0.0
 11
1.579448991
 21
16.9265622024
 31
0.0
  0
LINE
  5
276
330
1F
100
AcDbEntity
  8
0
  6
Continuous
 62
     7
370
    25
100
AcDbLine
 10
1.579448991
 20
16.9265622024
 30
0.0
 11
0.8294489084
 21
16.9265622024
 31
0.0
  0
LINE
  5
277
330
1F
100
AcDbEntity
  8
0
  6
Continuous
 62
     7
370
    25
100
AcDbLine
 10
0.8294489084
 20
16.9265622024
 30
0.0
 11
0.8294489084
 21
16.7265628061
 31
0.0
  0
LINE
  5
278
330
1F
100
AcDbEntity
  8
0
  6
Continuous
 62
     7
370
    25
100
AcDbLine
 10
0.8294489084
 20
16.7265628061
 30
0.0
 11
1.579448991
 21
16.7265628061
 31
0.0
  0
LINE
  5
279
330
1F
100
AcDbEntity
  8
0
  6
Continuous
 62
     7
370
    25
100
AcDbLine
 10
2.8296798816
 20
14.1265624416
 30
0.0
 11
2.8296798816
 21
14.3265624245
 31
0.0
  0
LINE
  5
27A
330
1F
100
AcDbEntity
  8
0
  6
Continuous
 62
     7
370
    25
100
AcDbLine
 10
2.8296798816
 20
14.3265624245
 30
0.0
 11
1.8296805537
 21
14.3265624245
 31
0.0
  0
LINE
  5
27B
330
1F
100
AcDbEntity
  8
0
  6
Continuous
 62
     7
370
    25
100
AcDbLine
 10
1.8296805537
 20
14.3265624245
 30
0.0
 11
1.8296805537
 21
14.1265624416
 31
0.0
  0
LINE
  5
27C
330
1F
100
AcDbEntity
  8
0
  6
Continuous
 62
     7
370
    25
100
AcDbLine
 10
1.8296805537
 20
14.1265624416
 30
0.0
 11
2.8296798816
 21
14.1265624416
 31
0.0
  0
LINE
  5
27D
330
1F
100
AcDbEntity
  8
0
  6
Continuous
 62
     7
370
    25
100
AcDbLine
 10
6.8046807887
 20
19.8515627592
 30
0.0
 11
6.8046807887
 21
17.6015625114
 31
0.0
  0
LINE
  5
27E
330
1F
100
AcDbEntity
  8
0
  6
Continuous
 62
     7
370
    25
100
AcDbLine
 10
6.8046807887
 20
17.6015625114
 30
0.0
 11
9.0546810365
 21
17.6015625114
 31
0.0
  0
LINE
  5
27F
330
1F
100
AcDbEntity
  8
0
  6
Continuous
 62
     7
370
    25
100
AcDbLine
 10
9.0546810365
 20
17.6015625114
 30
0.0
 11
9.0546810365
 21
19.8515627592
 31
0.0
  0
LINE
  5
280
330
1F
100
AcDbEntity
  8
0
  6
Continuous
 62
     7
370
    25
100
AcDbLine
 10
9.0546810365
 20
19.8515627592
 30
0.0
 11
6.8046807887
 21
19.8515627592
 31
0.0
  0
LINE
  5
281
330
1F
100
AcDbEntity
  8
0
  6
Continuous
 62
     7
370
    25
100
AcDbLine
 10
3.9296812543
 20
15.2265626409
 30
0.0
 11
3.9296812543
 21
16.2265619688
 31
0.0
  0
LINE
  5
282
330
1F
100
AcDbEntity
  8
0
  6
Continuous
 62
     7
370
    25
100
AcDbLine
 10
3.9296812543
 20
16.2265619688
 30
0.0
 11
1.9296802518
 21
16.2265619688
 31
0.0
  0
LINE
  5
283
330
1F
100
AcDbEntity
  8
0
  6
Continuous
 62
     7
370
    25
100
AcDbLine
 10
1.9296802518
 20
16.2265619688
 30
0.0
 11
1.9296802518
 21
15.2265626409
 31
0.0
  0
LINE
  5
284
330
1F
100
AcDbEntity
  8
0
  6
Continuous
 62
     7
370
    25
100
AcDbLine
 10
1.9296802518
 20
15.2265626409
 30
0.0
 11
3.9296812543
 21
15.2265626409
 31
0.0
  0
CIRCLE
  5
285
330
1F
100
AcDbEntity
  8
0
  6
Continuous
 62
     7
370
    25
100
AcDbCircle
 10
4.579680838
 20
18.0015624988
 30
0.0
 40
0.0749999999999993
  0
CIRCLE
  5
286
330
1F
100
AcDbEntity
  8
0
  6
Continuous
 62
     7
370
    25
100
AcDbCircle
 10
4.579680838
 20
19.4515624988
 30
0.0
 40
0.0750000000000028
  0
CIRCLE
  5
287
330
1F
100
AcDbEntity
  8
0
  6
Continuous
 62
     7
370
    25
100
AcDbCircle
 10
6.029680838
 20
19.4515624988
 30
0.0
 40
0.0750000000000028
  0
CIRCLE
  5
288
330
1F
100
AcDbEntity
  8
0
  6
Continuous
 62
     7
370
    25
100
AcDbCircle
 10
6.029680838
 20
18.0015624988
 30
0.0
 40
0.0749999999999993
  0
CIRCLE
  5
289
330
1F
100
AcDbEntity
  8
0
  6
Continuous
 62
     7
370
    25
100
AcDbCircle
 10
3.717312985
 20
17.3208567508
 30
0.0
 40
0.0749999999999993
  0
CIRCLE
  5
28A
330
1F
100
AcDbEntity
  8
0
  6
Continuous
 62
     7
370
    25
100
AcDbCircle
 10
6.207312985
 20
20.1745385831
 30
0.0
 40
0.0749999999999993
  0
CIRCLE
  5
28B
330
1F
100
AcDbEntity
  8
0
  6
Continuous
 62
     7
370
    25
100
AcDbCircle
 10
3.997312985
 20
20.1908567508
 30
0.0
 40
0.0749999999999957
  0
CIRCLE
  5
28C
330
1F
100
AcDbEntity
  8
0
  6
Continuous
 62
     7
370
    25
100
AcDbCircle
 10
6.397312985
 20
17.3208567508
 30
0.0
 40
0.0749999999999993
  0
CIRCLE
  5
28D
330
1F
100
AcDbEntity
  8
0
  6
Continuous
 62
     7
370
    25
100
AcDbCircle
 10
1.779680838
 20
14.7265624988
 30
0.0
 40
0.0649999999999995
  0
CIRCLE
  5
28E
330
1F
100
AcDbEntity
  8
0
  6
Continuous
 62
     7
370
    25
100
AcDbCircle
 10
0.3623580034
 20
14.7265624988
 30
0.0
 40
0.0649999999999995
  0
CIRCLE
  5
28F
330
1F
100
AcDbEntity
  8
0
  6
Continuous
 62
     7
370
    25
100
AcDbCircle
 10
0.3623580034
 20
15.3564837586
 30
0.0
 40
0.0649999999999977
  0
CIRCLE
  5
290
330
1F
100
AcDbEntity
  8
0
  6
Continuous
 62
     7
370
    25
100
AcDbCircle
 10
1.779680838
 20
15.3564837586
 30
0.0
 40
0.0649999999999977
  0
CIRCLE
  5
291
330
1F
100
AcDbEntity
  8
0
  6
Continuous
 62
     7
370
    25
100
AcDbCircle
 10
1.779680838
 20
22.7265624988
 30
0.0
 40
0.0650000000000048
  0
CIRCLE
  5
292
330
1F
100
AcDbEntity
  8
0
  6
Continuous
 62
     7
370
    25
100
AcDbCircle
 10
0.3623580034
 20
22.7265624988
 30
0.0
 40
0.0650000000000048
  0
CIRCLE
  5
293
330
1F
100
AcDbEntity
  8
0
  6
Continuous
 62
     7
370
    25
100
AcDbCircle
 10
0.3623580034
 20
22.0966412389
 30
0.0
 40
0.0650000000000013
  0
CIRCLE
  5
294
330
1F
100
AcDbEntity
  8
0
  6
Continuous
 62
     7
370
    25
100
AcDbCircle
 10
1.779680838
 20
22.0966412389
 30
0.0
 40
0.0650000000000013
  0
CIRCLE
  5
295
330
1F
100
AcDbEntity
  8
0
  6
Continuous
 62
     7
370
    25
100
AcDbCircle
 10
8.579680838
 20
22.7265624988
 30
0.0
 40
0.0650000000000048
  0
CIRCLE
  5
296
330
1F
100
AcDbEntity
  8
0
  6
Continuous
 62
     7
370
    25
100
AcDbCircle
 10
9.9970036727
 20
22.7265624988
 30
0.0
 40
0.0650000000000048
  0
CIRCLE
  5
297
330
1F
100
AcDbEntity
  8
0
  6
Continuous
 62
     7
370
    25
100
AcDbCircle
 10
9.9970036727
 20
22.0966412389
 30
0.0
 40
0.0650000000000013
  0
CIRCLE
  5
298
330
1F
100
AcDbEntity
  8
0
  6
Continuous
 62
     7
370
    25
100
AcDbCircle
 10
8.579680838
 20
22.0966412389
 30
0.0
 40
0.0650000000000013
  0
CIRCLE
  5
299
330
1F
100
AcDbEntity
  8
0
  6
Continuous
 62
     7
370
    25
100
AcDbCircle
 10
8.579680838
 20
14.7265624988
 30
0.0
 40
0.0649999999999995
  0
CIRCLE
  5
29A
330
1F
100
AcDbEntity
  8
0
  6
Continuous
 62
     7
370
    25
100
AcDbCircle
 10
9.9970036727
 20
14.7265624988
 30
0.0
 40
0.0649999999999995
  0
CIRCLE
  5
29B
330
1F
100
AcDbEntity
  8
0
  6
Continuous
 62
     7
370
    25
100
AcDbCircle
 10
9.9970036727
 20
15.3564837586
 30
0.0
 40
0.0649999999999977
  0
CIRCLE
  5
29C
330
1F
100
AcDbEntity
  8
0
  6
Continuous
 62
     7
370
    25
100
AcDbCircle
 10
8.579680838
 20
15.3564837586
 30
0.0
 40
0.0649999999999977
  0
LINE
  5
29D
330
1F
100
AcDbEntity
  8
0
  6
Continuous
 62
     7
370
    25
100
AcDbLine
 10
6.4296807474
 20
16.2265619688
 30
0.0
 11
8.4296817499
 21
16.2265619688
 31
0.0
  0
LINE
  5
29E
330
1F
100
AcDbEntity
  8
0
  6
Continuous
 62
     7
370
    25
100
AcDbLine
 10
6.4296807474
 20
15.2265626409
 30
0.0
 11
6.4296807474
 21
16.2265619688
 31
0.0
  0
LINE
  5
29F
330
1F
100
AcDbEntity
  8
0
  6
Continuous
 62
     7
370
    25
100
AcDbLine
 10
8.4296817499
 20
15.2265626409
 30
0.0
 11
6.4296807474
 21
15.2265626409
 31
0.0
  0
LINE
  5
2A0
330
1F
100
AcDbEntity
  8
0
  6
Continuous
 62
     7
370
    25
100
AcDbLine
 10
8.4296817499
 20
16.2265619688
 30
0.0
 11
8.4296817499
 21
15.2265626409
 31
0.0
  0
LINE
  5
2A1
330
1F
100
AcDbEntity
  8
0
  6
Continuous
 62
     7
370
    25
100
AcDbLine
 10
9.1796806592
 20
23.7265627949
 30
0.0
 11
6.4296807474
 21
23.7265627949
 31
0.0
  0
ARC
  5
2A2
330
1F
100
AcDbEntity
  8
0
  6
Continuous
 62
     7
370
    25
100
AcDbCircle
 10
1.179680838
 20
22.7265624988
 30
0.0
 40
1.000000000000004
100
AcDbArc
 50
90.0
 51
180.0
  0
ARC
  5
2A3
330
1F
100
AcDbEntity
  8
0
  6
Continuous
 62
     7
370
    25
100
AcDbCircle
 10
9.179680838
 20
22.7265624988
 30
0.0
 40
1.000000000000004
100
AcDbArc
 50
0.0
 51
90.0
  0
LINE
  5
2A4
330
1F
100
AcDbEntity
  8
0
  6
HIDDEN
 62
     7
370
    18
100
AcDbLine
 10
1.5502122088
 20
10.2622663089
 30
0.0
 11
1.6359983111
 21
10.2622663089
 31
0.0
  0
LINE
  5
2A5
330
1F
100
AcDbEntity
  8
0
  6
HIDDEN
 62
     7
370
    18
100
AcDbLine
 10
1.5502122088
 20
10.7622662662
 30
0.0
 11
1.5502122088
 21
10.2622663089
 31
0.0
  0
ARC
  5
2A6
330
1F
100
AcDbEntity
  8
0
  6
HIDDEN
 62
     7
370
    18
100
AcDbCircle
 10
1.6359993581
 20
11.2622662874
 30
0.0
 40
0.9999999999999982
100
AcDbArc
 50
270.0
 51
315.0
  0
LINE
  5
2A7
330
1F
100
AcDbEntity
  8
0
  6
HIDDEN
 62
     7
370
    18
100
AcDbLine
 10
2.3431065158
 20
10.5551594854
 30
0.0
 11
3.2573197414
 21
11.4693732976
 31
0.0
  0
ARC
  5
2A8
330
1F
100
AcDbEntity
  8
0
  6
HIDDEN
 62
     7
370
    18
100
AcDbCircle
 10
2.5502129205
 20
12.1764798497
 30
0.0
 40
1.0
100
AcDbArc
 50
315.0
 51
0.0
  0
LINE
  5
2A9
330
1F
100
AcDbEntity
  8
0
  6
HIDDEN
 62
     7
370
    18
100
AcDbLine
 10
3.5502132112
 20
12.1764797424
 30
0.0
 11
3.5502132112
 21
12.2622664314
 31
0.0
  0
LINE
  5
2AA
330
1F
100
AcDbEntity
  8
0
  6
HIDDEN
 62
     7
370
    18
100
AcDbLine
 10
3.050212374
 20
12.2622664314
 30
0.0
 11
1.5502122088
 21
10.7622662662
 31
0.0
  0
LINE
  5
2AB
330
1F
100
AcDbEntity
  8
0
  6
HIDDEN
 62
     7
370
    18
100
AcDbLine
 10
3.5502132112
 20
12.2622664314
 30
0.0
 11
3.050212374
 21
12.2622664314
 31
0.0
  0
ENDSEC
  0
SECTION
  2
OBJECTS
  0
DICTIONARY
  5
C
330
0
100
AcDbDictionary
281
     1
  3
ACAD_GROUP
350
D
  3
ACAD_LAYOUT
350
1A
  3
ACAD_MLINESTYLE
350
17
  3
ACAD_PLOTSETTINGS
350
19
  3
ACAD_PLOTSTYLENAME
350
E
  3
ACAD_SCALELIST
350
47
  0
DICTIONARY
  5
D
102
{ACAD_REACTORS
330
C
102
}
330
C
100
AcDbDictionary
281
     1
  0
DICTIONARY
  5
1A
102
{ACAD_REACTORS
330
C
102
}
330
C
100
AcDbDictionary
281
     1
  3
Layout1
350
1E
  3
Layout2
350
26
  3
Model
350
22
  0
DICTIONARY
  5
17
102
{ACAD_REACTORS
330
C
102
}
330
C
100
AcDbDictionary
281
     1
  3
Standard
350
18
  0
DICTIONARY
  5
19
102
{ACAD_REACTORS
330
C
102
}
330
C
100
AcDbDictionary
281
     1
  0
ACDBDICTIONARYWDFLT
  5
E
102
{ACAD_REACTORS
330
C
102
}
330
C
100
AcDbDictionary
281
     1
  3
Normal
350
F
100
AcDbDictionaryWithDefault
340
F
  0
DICTIONARY
  5
47
102
{ACAD_REACTORS
330
C
102
}
330
C
100
AcDbDictionary
281
     1
  3
A0
350
48
  3
A1
350
49
  3
A2
350
4A
  3
A3
350
4B
  3
A4
350
4C
  3
A5
350
4D
  3
A6
350
4E
  3
A7
350
4F
  3
A8
350
50
  3
A9
350
51
  3
B0
350
52
  3
B1
350
53
  3
B2
350
54
  3
B3
350
55
  3
B4
350
56
  3
B5
350
57
  3
B6
350
58
  3
B7
350
59
  3
B8
350
5A
  3
B9
350
5B
  3
C0
350
5C
  3
C1
350
5D
  3
C2
350
5E
  3
C3
350
5F
  3
C4
350
60
  3
C5
350
61
  3
C6
350
62
  3
C7
350
63
  3
C8
350
64
  3
C9
350
65
  3
D0
350
66
  3
D1
350
67
  3
D2
350
68
  0
LAYOUT
  5
1E
102
{ACAD_REACTORS
330
1A
102
}
330
1A
100
AcDbPlotSettings
  1

  2
none_device
  4

  6

 40
0.0
 41
0.0
 42
0.0
 43
0.0
 44
0.0
 45
0.0
 46
0.0
 47
0.0
 48
0.0
 49
0.0
140
0.0
141
0.0
142
1.0
143
1.0
 70
   688
 72
     0
 73
     0
 74
     5
  7

 75
    16
147
1.0
148
0.0
149
0.0
100
AcDbLayout
  1
Layout1
 70
     1
 71
     1
 10
0.0
 20
0.0
 11
12.0
 21
9.0
 12
0.0
 22
0.0
 32
0.0
 14
1.0000000000E+20
 24
1.0000000000E+20
 34
1.0000000000E+20
 15
-1.0000000000E+20
 25
-1.0000000000E+20
 35
-1.0000000000E+20
146
0.0
 13
0.0
 23
0.0
 33
0.0
 16
1.0
 26
0.0
 36
0.0
 17
0.0
 27
1.0
 37
0.0
 76
     0
330
1B
  0
LAYOUT
  5
26
102
{ACAD_REACTORS
330
1A
102
}
330
1A
100
AcDbPlotSettings
  1

  2
none_device
  4

  6

 40
0.0
 41
0.0
 42
0.0
 43
0.0
 44
0.0
 45
0.0
 46
0.0
 47
0.0
 48
0.0
 49
0.0
140
0.0
141
0.0
142
1.0
143
1.0
 70
   688
 72
     0
 73
     0
 74
     5
  7

 75
    16
147
1.0
148
0.0
149
0.0
100
AcDbLayout
  1
Layout2
 70
     1
 71
     2
 10
0.0
 20
0.0
 11
0.0
 21
0.0
 12
0.0
 22
0.0
 32
0.0
 14
0.0
 24
0.0
 34
0.0
 15
0.0
 25
0.0
 35
0.0
146
0.0
 13
0.0
 23
0.0
 33
0.0
 16
1.0
 26
0.0
 36
0.0
 17
0.0
 27
1.0
 37
0.0
 76
     0
330
23
  0
LAYOUT
  5
22
102
{ACAD_REACTORS
330
1A
102
}
330
1A
100
AcDbPlotSettings
  1

  2
none_device
  4
Letter_(8.50_x_11.00_Inches)
  6

 40
6.35
 41
6.35
 42
6.35000508
 43
6.35000508
 44
215.9
 45
279.4
 46
0.0
 47
0.0
 48
0.0
 49
0.0
140
0.0
141
0.0
142
1.0
143
1.0
 70
  1712
 72
     0
 73
     0
 74
     0
  7

 75
     0
147
1.0
148
0.0
149
0.0
100
AcDbLayout
  1
Model
 70
     1
 71
     0
 10
0.0
 20
0.0
 11
24.0
 21
24.0
 12
0.0
 22
0.0
 32
0.0
 14
0.0
 24
0.0
 34
0.0
 15
24.0
 25
24.0
 35
0.0
146
0.0
 13
0.0
 23
0.0
 33
0.0
 16
1.0
 26
0.0
 36
0.0
 17
0.0
 27
1.0
 37
0.0
 76
     0
330
1F
331
29
  0
MLINESTYLE
  5
18
102
{ACAD_REACTORS
330
17
102
}
330
17
100
AcDbMlineStyle
  2
Standard
 70
     0
  3

 62
   256
 51
90.0
 52
90.0
 71
     2
 49
0.5
 62
   256
  6
BYLAYER
 49
-0.5
 62
   256
  6
BYLAYER
  0
ACDBPLACEHOLDER
  5
F
102
{ACAD_REACTORS
330
E
102
}
330
E
  0
SCALE
  5
48
102
{ACAD_REACTORS
330
47
102
}
330
47
100
AcDbScale
 70
     0
300
1:1
140
1.0
141
1.0
290
     1
  0
SCALE
  5
49
102
{ACAD_REACTORS
330
47
102
}
330
47
100
AcDbScale
 70
     0
300
1:2
140
1.0
141
2.0
290
     0
  0
SCALE
  5
4A
102
{ACAD_REACTORS
330
47
102
}
330
47
100
AcDbScale
 70
     0
300
1:4
140
1.0
141
4.0
290
     0
  0
SCALE
  5
4B
102
{ACAD_REACTORS
330
47
102
}
330
47
100
AcDbScale
 70
     0
300
1:5
140
1.0
141
5.0
290
     0
  0
SCALE
  5
4C
102
{ACAD_REACTORS
330
47
102
}
330
47
100
AcDbScale
 70
     0
300
1:8
140
1.0
141
8.0
290
     0
  0
SCALE
  5
4D
102
{ACAD_REACTORS
330
47
102
}
330
47
100
AcDbScale
 70
     0
300
1:10
140
1.0
141
10.0
290
     0
  0
SCALE
  5
4E
102
{ACAD_REACTORS
330
47
102
}
330
47
100
AcDbScale
 70
     0
300
1:16
140
1.0
141
16.0
290
     0
  0
SCALE
  5
4F
102
{ACAD_REACTORS
330
47
102
}
330
47
100
AcDbScale
 70
     0
300
1:20
140
1.0
141
20.0
290
     0
  0
SCALE
  5
50
102
{ACAD_REACTORS
330
47
102
}
330
47
100
AcDbScale
 70
     0
300
1:30
140
1.0
141
30.0
290
     0
  0
SCALE
  5
51
102
{ACAD_REACTORS
330
47
102
}
330
47
100
AcDbScale
 70
     0
300
1:40
140
1.0
141
40.0
290
     0
  0
SCALE
  5
52
102
{ACAD_REACTORS
330
47
102
}
330
47
100
AcDbScale
 70
     0
300
1:50
140
1.0
141
50.0
290
     0
  0
SCALE
  5
53
102
{ACAD_REACTORS
330
47
102
}
330
47
100
AcDbScale
 70
     0
300
1:100
140
1.0
141
100.0
290
     0
  0
SCALE
  5
54
102
{ACAD_REACTORS
330
47
102
}
330
47
100
AcDbScale
 70
     0
300
2:1
140
2.0
141
1.0
290
     0
  0
SCALE
  5
55
102
{ACAD_REACTORS
330
47
102
}
330
47
100
AcDbScale
 70
     0
300
4:1
140
4.0
141
1.0
290
     0
  0
SCALE
  5
56
102
{ACAD_REACTORS
330
47
102
}
330
47
100
AcDbScale
 70
     0
300
8:1
140
8.0
141
1.0
290
     0
  0
SCALE
  5
57
102
{ACAD_REACTORS
330
47
102
}
330
47
100
AcDbScale
 70
     0
300
10:1
140
10.0
141
1.0
290
     0
  0
SCALE
  5
58
102
{ACAD_REACTORS
330
47
102
}
330
47
100
AcDbScale
 70
     0
300
100:1
140
100.0
141
1.0
290
     0
  0
SCALE
  5
59
102
{ACAD_REACTORS
330
47
102
}
330
47
100
AcDbScale
 70
     0
300
1/128" = 1'-0"
140
0.0078125
141
12.0
290
     0
  0
SCALE
  5
5A
102
{ACAD_REACTORS
330
47
102
}
330
47
100
AcDbScale
 70
     0
300
1/64" = 1'-0"
140
0.015625
141
12.0
290
     0
  0
SCALE
  5
5B
102
{ACAD_REACTORS
330
47
102
}
330
47
100
AcDbScale
 70
     0
300
1/32" = 1'-0"
140
0.03125
141
12.0
290
     0
  0
SCALE
  5
5C
102
{ACAD_REACTORS
330
47
102
}
330
47
100
AcDbScale
 70
     0
300
1/16" = 1'-0"
140
0.0625
141
12.0
290
     0
  0
SCALE
  5
5D
102
{ACAD_REACTORS
330
47
102
}
330
47
100
AcDbScale
 70
     0
300
3/32" = 1'-0"
140
0.09375
141
12.0
290
     0
  0
SCALE
  5
5E
102
{ACAD_REACTORS
330
47
102
}
330
47
100
AcDbScale
 70
     0
300
1/8" = 1'-0"
140
0.125
141
12.0
290
     0
  0
SCALE
  5
5F
102
{ACAD_REACTORS
330
47
102
}
330
47
100
AcDbScale
 70
     0
300
3/16" = 1'-0"
140
0.1875
141
12.0
290
     0
  0
SCALE
  5
60
102
{ACAD_REACTORS
330
47
102
}
330
47
100
AcDbScale
 70
     0
300
1/4" = 1'-0"
140
0.25
141
12.0
290
     0
  0
SCALE
  5
61
102
{ACAD_REACTORS
330
47
102
}
330
47
100
AcDbScale
 70
     0
300
3/8" = 1'-0"
140
0.375
141
12.0
290
     0
  0
SCALE
  5
62
102
{ACAD_REACTORS
330
47
102
}
330
47
100
AcDbScale
 70
     0
300
1/2" = 1'-0"
140
0.5
141
12.0
290
     0
  0
SCALE
  5
63
102
{ACAD_REACTORS
330
47
102
}
330
47
100
AcDbScale
 70
     0
300
3/4" = 1'-0"
140
0.75
141
12.0
290
     0
  0
SCALE
  5
64
102
{ACAD_REACTORS
330
47
102
}
330
47
100
AcDbScale
 70
     0
300
1" = 1'-0"
140
1.0
141
12.0
290
     0
  0
SCALE
  5
65
102
{ACAD_REACTORS
330
47
102
}
330
47
100
AcDbScale
 70
     0
300
1-1/2" = 1'-0"
140
1.5
141
12.0
290
     0
  0
SCALE
  5
66
102
{ACAD_REACTORS
330
47
102
}
330
47
100
AcDbScale
 70
     0
300
3" = 1'-0"
140
3.0
141
12.0
290
     0
  0
SCALE
  5
67
102
{ACAD_REACTORS
330
47
102
}
330
47
100
AcDbScale
 70
     0
300
6" = 1'-0"
140
6.0
141
12.0
290
     0
  0
SCALE
  5
68
102
{ACAD_REACTORS
330
47
102
}
330
47
100
AcDbScale
 70
     0
300
1'-0" = 1'-0"
140
12.0
141
12.0
290
     0
  0
ENDSEC
  0
EOF
